<svg data-v-423bf9ae="" xmlns="http://www.w3.org/2000/svg" viewBox="0 0 863 112" class="iconLeftSlogan"><!----><!----><!----><g data-v-423bf9ae="" id="e5a8dd1b-4383-466a-b8d5-1580f5c5c221" fill="white" transform="matrix(5.449591167364901,0,0,5.449591167364901,124.3887913486243,-15.313351345304419)"><path d="M1.23 3.36L1.23 3.36L9.02 3.36L9.02 3.36Q9.46 3.36 9.67 3.47L9.67 3.47L9.67 3.47Q9.88 3.57 9.95 3.79L9.95 3.79L9.95 3.79Q10.02 4.02 10.02 4.38L10.02 4.38L10.02 4.38Q10.02 4.75 9.95 4.96L9.95 4.96L9.95 4.96Q9.88 5.18 9.72 5.26L9.72 5.26L9.72 5.26Q9.46 5.39 9.00 5.39L9.00 5.39L6.33 5.39L6.33 12.43L6.33 12.43Q6.33 12.75 6.31 12.91L6.31 12.91L6.31 12.91Q6.29 13.06 6.18 13.27L6.18 13.27L6.18 13.27Q6.08 13.47 5.81 13.55L5.81 13.55L5.81 13.55Q5.54 13.64 5.11 13.64L5.11 13.64L5.11 13.64Q4.68 13.64 4.42 13.55L4.42 13.55L4.42 13.55Q4.16 13.47 4.05 13.27L4.05 13.27L4.05 13.27Q3.95 13.06 3.93 12.90L3.93 12.90L3.93 12.90Q3.91 12.74 3.91 12.42L3.91 12.42L3.91 5.39L1.22 5.39L1.22 5.39Q0.77 5.39 0.56 5.29L0.56 5.29L0.56 5.29Q0.35 5.18 0.28 4.96L0.28 4.96L0.28 4.96Q0.21 4.73 0.21 4.37L0.21 4.37L0.21 4.37Q0.21 4.00 0.28 3.79L0.28 3.79L0.28 3.79Q0.35 3.57 0.52 3.49L0.52 3.49L0.52 3.49Q0.77 3.36 1.23 3.36ZM10.79 12.40L10.79 7.49L10.79 7.49Q10.79 7.17 10.81 7.01L10.81 7.01L10.81 7.01Q10.84 6.85 10.93 6.64L10.93 6.64L10.93 6.64Q11.13 6.27 12.03 6.27L12.03 6.27L12.03 6.27Q12.70 6.27 12.98 6.51L12.98 6.51L12.98 6.51Q13.22 6.71 13.23 7.11L13.23 7.11L13.23 7.11Q13.24 7.25 13.24 7.52L13.24 7.52L13.24 12.42L13.24 12.42Q13.24 12.74 13.22 12.90L13.22 12.90L13.22 12.90Q13.20 13.06 13.09 13.27L13.09 13.27L13.09 13.27Q12.91 13.64 12.01 13.64L12.01 13.64L12.01 13.64Q11.13 13.64 10.93 13.26L10.93 13.26L10.93 13.26Q10.84 13.05 10.81 12.89L10.81 12.89L10.81 12.89Q10.79 12.74 10.79 12.40L10.79 12.40ZM13.10 4.89L13.10 4.89L13.10 4.89Q12.99 5.10 12.73 5.18L12.73 5.18L12.73 5.18Q12.46 5.26 12.02 5.26L12.02 5.26L12.02 5.26Q11.58 5.26 11.31 5.18L11.31 5.18L11.31 5.18Q11.05 5.10 10.94 4.89L10.94 4.89L10.94 4.89Q10.84 4.68 10.81 4.52L10.81 4.52L10.81 4.52Q10.79 4.35 10.79 4.03L10.79 4.03L10.79 4.03Q10.79 3.71 10.81 3.55L10.81 3.55L10.81 3.55Q10.84 3.39 10.93 3.19L10.93 3.19L10.93 3.19Q11.13 2.81 12.03 2.81L12.03 2.81L12.03 2.81Q12.91 2.81 13.09 3.19L13.09 3.19L13.09 3.19Q13.20 3.40 13.22 3.56L13.22 3.56L13.22 3.56Q13.24 3.72 13.24 4.05L13.24 4.05L13.24 4.05Q13.24 4.37 13.22 4.53L13.22 4.53L13.22 4.53Q13.20 4.69 13.10 4.89ZM18.65 8.74L18.65 8.74L17.74 8.68L17.74 10.61L17.74 10.61Q17.74 10.99 17.86 11.16L17.86 11.16L17.86 11.16Q17.98 11.33 18.30 11.33L18.30 11.33L18.30 11.33Q18.63 11.33 18.81 11.35L18.81 11.35L18.81 11.35Q18.98 11.37 19.18 11.48L19.18 11.48L19.18 11.48Q19.50 11.66 19.50 12.42L19.50 12.42L19.50 12.42Q19.50 13.30 19.11 13.50L19.11 13.50L19.11 13.50Q18.90 13.59 18.74 13.62L18.74 13.62L18.74 13.62Q18.58 13.64 18.27 13.64L18.27 13.64L18.27 13.64Q16.81 13.64 16.06 12.98L16.06 12.98L16.06 12.98Q15.30 12.32 15.30 10.75L15.30 10.75L15.30 8.68L15.30 8.68Q15.04 8.72 14.73 8.72L14.73 8.72L14.73 8.72Q14.42 8.72 14.22 8.48L14.22 8.48L14.22 8.48Q14.01 8.25 14.01 7.67L14.01 7.67L14.01 7.67Q14.01 7.10 14.08 6.84L14.08 6.84L14.08 6.84Q14.15 6.58 14.28 6.47L14.28 6.47L14.28 6.47Q14.50 6.29 14.84 6.29L14.84 6.29L15.30 6.34L15.30 4.90L15.30 4.90Q15.30 4.58 15.32 4.42L15.32 4.42L15.32 4.42Q15.34 4.27 15.46 4.09L15.46 4.09L15.46 4.09Q15.64 3.74 16.53 3.74L16.53 3.74L16.53 3.74Q17.49 3.74 17.67 4.26L17.67 4.26L17.67 4.26Q17.74 4.48 17.74 4.97L17.74 4.97L17.74 6.34L17.74 6.34Q18.35 6.29 18.67 6.29L18.67 6.29L18.67 6.29Q18.98 6.29 19.14 6.31L19.14 6.31L19.14 6.31Q19.31 6.33 19.52 6.44L19.52 6.44L19.52 6.44Q19.88 6.62 19.88 7.52L19.88 7.52L19.88 7.52Q19.88 8.40 19.50 8.60L19.50 8.60L19.50 8.60Q19.29 8.69 19.13 8.71L19.13 8.71L19.13 8.71Q18.97 8.74 18.65 8.74ZM20.44 9.95L20.44 9.95Q20.44 8.27 21.62 7.18L21.62 7.18L21.62 7.18Q22.79 6.09 24.30 6.09L24.30 6.09L24.30 6.09Q25.82 6.09 26.98 7.18L26.98 7.18L26.98 7.18Q28.14 8.26 28.14 9.94L28.14 9.94L28.14 9.94Q28.14 11.10 27.54 12.01L27.54 12.01L27.54 12.01Q26.94 12.91 26.07 13.34L26.07 13.34L26.07 13.34Q25.21 13.76 24.29 13.76L24.29 13.76L24.29 13.76Q23.37 13.76 22.50 13.31L22.50 13.31L22.50 13.31Q21.63 12.85 21.04 11.96L21.04 11.96L21.04 11.96Q20.44 11.07 20.44 9.95L20.44 9.95ZM23.37 10.96L23.37 10.96L23.37 10.96Q23.81 11.30 24.28 11.30L24.28 11.30L24.28 11.30Q24.74 11.30 25.20 10.95L25.20 10.95L25.20 10.95Q25.66 10.60 25.66 9.91L25.66 9.91L25.66 9.91Q25.66 9.23 25.23 8.89L25.23 8.89L25.23 8.89Q24.79 8.55 24.29 8.55L24.29 8.55L24.29 8.55Q23.79 8.55 23.35 8.90L23.35 8.90L23.35 8.90Q22.92 9.25 22.92 9.93L22.92 9.93L22.92 9.93Q22.92 10.61 23.37 10.96ZM39.00 10.95L39.00 10.95L39.26 10.77L39.26 10.77Q39.73 10.49 39.93 10.49L39.93 10.49L39.93 10.49Q40.36 10.49 40.87 11.27L40.87 11.27L40.87 11.27Q41.17 11.76 41.17 12.05L41.17 12.05L41.17 12.05Q41.17 12.35 40.98 12.54L40.98 12.54L40.98 12.54Q40.80 12.74 40.54 12.89L40.54 12.89L40.54 12.89Q40.29 13.05 40.06 13.19L40.06 13.19L40.06 13.19Q39.83 13.33 39.12 13.55L39.12 13.55L39.12 13.55Q38.40 13.78 37.74 13.78L37.74 13.78L37.74 13.78Q37.07 13.78 36.39 13.60L36.39 13.60L36.39 13.60Q35.71 13.43 34.99 13.01L34.99 13.01L34.99 13.01Q34.27 12.60 33.70 12.01L33.70 12.01L33.70 12.01Q33.12 11.41 32.75 10.48L32.75 10.48L32.75 10.48Q32.38 9.55 32.38 8.46L32.38 8.46L32.38 8.46Q32.38 7.36 32.75 6.48L32.75 6.48L32.75 6.48Q33.11 5.59 33.68 5.01L33.68 5.01L33.68 5.01Q34.24 4.42 34.97 4.03L34.97 4.03L34.97 4.03Q36.34 3.28 37.73 3.28L37.73 3.28L37.73 3.28Q38.39 3.28 39.07 3.48L39.07 3.48L39.07 3.48Q39.75 3.68 40.10 3.89L40.10 3.89L40.43 4.09L40.43 4.09Q40.68 4.24 40.82 4.34L40.82 4.34L40.82 4.34Q41.19 4.63 41.19 5.01L41.19 5.01L41.19 5.01Q41.19 5.38 40.89 5.78L40.89 5.78L40.89 5.78Q40.35 6.54 39.91 6.54L39.91 6.54L39.91 6.54Q39.66 6.54 39.20 6.23L39.20 6.23L39.20 6.23Q38.61 5.75 37.63 5.75L37.63 5.75L37.63 5.75Q36.72 5.75 35.84 6.38L35.84 6.38L35.84 6.38Q35.42 6.69 35.14 7.25L35.14 7.25L35.14 7.25Q34.86 7.81 34.86 8.52L34.86 8.52L34.86 8.52Q34.86 9.23 35.14 9.79L35.14 9.79L35.14 9.79Q35.42 10.35 35.85 10.67L35.85 10.67L35.85 10.67Q36.71 11.28 37.63 11.28L37.63 11.28L37.63 11.28Q38.07 11.28 38.45 11.17L38.45 11.17L38.45 11.17Q38.84 11.06 39.00 10.95ZM41.89 9.95L41.89 9.95Q41.89 8.27 43.06 7.18L43.06 7.18L43.06 7.18Q44.24 6.09 45.75 6.09L45.75 6.09L45.75 6.09Q47.26 6.09 48.43 7.18L48.43 7.18L48.43 7.18Q49.59 8.26 49.59 9.94L49.59 9.94L49.59 9.94Q49.59 11.10 48.99 12.01L48.99 12.01L48.99 12.01Q48.38 12.91 47.52 13.34L47.52 13.34L47.52 13.34Q46.66 13.76 45.74 13.76L45.74 13.76L45.74 13.76Q44.81 13.76 43.95 13.31L43.95 13.31L43.95 13.31Q43.08 12.85 42.48 11.96L42.48 11.96L42.48 11.96Q41.89 11.07 41.89 9.95L41.89 9.95ZM44.81 10.96L44.81 10.96L44.81 10.96Q45.26 11.30 45.72 11.30L45.72 11.30L45.72 11.30Q46.19 11.30 46.65 10.95L46.65 10.95L46.65 10.95Q47.11 10.60 47.11 9.91L47.11 9.91L47.11 9.91Q47.11 9.23 46.68 8.89L46.68 8.89L46.68 8.89Q46.24 8.55 45.74 8.55L45.74 8.55L45.74 8.55Q45.23 8.55 44.80 8.90L44.80 8.90L44.80 8.90Q44.37 9.25 44.37 9.93L44.37 9.93L44.37 9.93Q44.37 10.61 44.81 10.96ZM54.60 6.26L54.60 6.26L54.60 6.26Q56 6.26 56.93 7.33L56.93 7.33L56.93 7.33Q57.86 8.40 57.86 9.94L57.86 9.94L57.86 12.40L57.86 12.40Q57.86 12.73 57.84 12.89L57.84 12.89L57.84 12.89Q57.82 13.05 57.72 13.24L57.72 13.24L57.72 13.24Q57.53 13.62 56.63 13.62L56.63 13.62L56.63 13.62Q55.64 13.62 55.48 13.10L55.48 13.10L55.48 13.10Q55.40 12.87 55.40 12.39L55.40 12.39L55.40 9.93L55.40 9.93Q55.40 9.35 55.07 9.03L55.07 9.03L55.07 9.03Q54.74 8.71 54.19 8.71L54.19 8.71L54.19 8.71Q53.63 8.71 53.29 9.04L53.29 9.04L53.29 9.04Q52.95 9.38 52.95 9.93L52.95 9.93L52.95 12.40L52.95 12.40Q52.95 12.73 52.93 12.89L52.93 12.89L52.93 12.89Q52.91 13.05 52.79 13.24L52.79 13.24L52.79 13.24Q52.61 13.62 51.72 13.62L51.72 13.62L51.72 13.62Q50.83 13.62 50.64 13.24L50.64 13.24L50.64 13.24Q50.54 13.03 50.52 12.87L50.52 12.87L50.52 12.87Q50.50 12.71 50.50 12.39L50.50 12.39L50.50 7.43L50.50 7.43Q50.50 7.13 50.52 6.97L50.52 6.97L50.52 6.97Q50.54 6.80 50.65 6.61L50.65 6.61L50.65 6.61Q50.85 6.26 51.73 6.26L51.73 6.26L51.73 6.26Q52.58 6.26 52.78 6.58L52.78 6.58L52.78 6.58Q52.92 6.82 52.92 7.15L52.92 7.15L52.92 7.15Q52.98 7.06 53.17 6.87L53.17 6.87L53.17 6.87Q53.37 6.69 53.55 6.58L53.55 6.58L53.55 6.58Q54.03 6.26 54.60 6.26ZM59.04 12.98L59.04 12.98L59.04 12.98Q58.77 12.81 58.77 12.45L58.77 12.45L58.77 12.45Q58.77 12.08 59.30 11.34L59.30 11.34L59.30 11.34Q59.46 11.10 59.80 11.10L59.80 11.10L59.80 11.10Q60.14 11.10 60.73 11.45L60.73 11.45L60.73 11.45Q61.32 11.79 61.80 11.79L61.80 11.79L61.80 11.79Q62.65 11.79 62.65 11.45L62.65 11.45L62.65 11.45Q62.65 11.19 61.71 11.06L61.71 11.06L61.71 11.06Q60.83 10.93 59.96 10.40L59.96 10.40L59.96 10.40Q59.56 10.15 59.29 9.61L59.29 9.61L59.29 9.61Q59.02 9.07 59.02 8.33L59.02 8.33L59.02 8.33Q59.02 6.12 62.06 6.12L62.06 6.12L62.06 6.12Q63.06 6.12 64.11 6.59L64.11 6.59L64.11 6.59Q64.60 6.82 64.60 7.15L64.60 7.15L64.60 7.15Q64.60 7.49 64.29 7.98L64.29 7.98L64.29 7.98Q63.98 8.47 63.66 8.47L63.66 8.47L63.66 8.47Q63.49 8.47 63.04 8.26L63.04 8.26L63.04 8.26Q62.58 8.05 62.05 8.05L62.05 8.05L62.05 8.05Q61.22 8.05 61.22 8.36L61.22 8.36L61.22 8.36Q61.22 8.78 62.17 8.90L62.17 8.90L62.17 8.90Q63.10 9.00 63.97 9.44L63.97 9.44L63.97 9.44Q64.37 9.63 64.65 10.12L64.65 10.12L64.65 10.12Q64.92 10.60 64.92 11.33L64.92 11.33L64.92 11.33Q64.92 12.05 64.65 12.57L64.65 12.57L64.65 12.57Q64.37 13.08 63.88 13.33L63.88 13.33L63.88 13.33Q62.99 13.76 61.64 13.76L61.64 13.76L61.64 13.76Q60.28 13.76 59.04 12.98ZM69.89 8.74L69.89 8.74L68.98 8.68L68.98 10.61L68.98 10.61Q68.98 10.99 69.10 11.16L69.10 11.16L69.10 11.16Q69.22 11.33 69.55 11.33L69.55 11.33L69.55 11.33Q69.87 11.33 70.05 11.35L70.05 11.35L70.05 11.35Q70.22 11.37 70.42 11.48L70.42 11.48L70.42 11.48Q70.74 11.66 70.74 12.42L70.74 12.42L70.74 12.42Q70.74 13.30 70.35 13.50L70.35 13.50L70.35 13.50Q70.14 13.59 69.98 13.62L69.98 13.62L69.98 13.62Q69.82 13.64 69.51 13.64L69.51 13.64L69.51 13.64Q68.05 13.64 67.30 12.98L67.30 12.98L67.30 12.98Q66.54 12.32 66.54 10.75L66.54 10.75L66.54 8.68L66.54 8.68Q66.28 8.72 65.97 8.72L65.97 8.72L65.97 8.72Q65.66 8.72 65.46 8.48L65.46 8.48L65.46 8.48Q65.25 8.25 65.25 7.67L65.25 7.67L65.25 7.67Q65.25 7.10 65.32 6.84L65.32 6.84L65.32 6.84Q65.39 6.58 65.52 6.47L65.52 6.47L65.52 6.47Q65.74 6.29 66.08 6.29L66.08 6.29L66.54 6.34L66.54 4.90L66.54 4.90Q66.54 4.58 66.56 4.42L66.56 4.42L66.56 4.42Q66.58 4.27 66.70 4.09L66.70 4.09L66.70 4.09Q66.88 3.74 67.77 3.74L67.77 3.74L67.77 3.74Q68.73 3.74 68.91 4.26L68.91 4.26L68.91 4.26Q68.98 4.48 68.98 4.97L68.98 4.97L68.98 6.34L68.98 6.34Q69.59 6.29 69.91 6.29L69.91 6.29L69.91 6.29Q70.22 6.29 70.38 6.31L70.38 6.31L70.38 6.31Q70.55 6.33 70.76 6.44L70.76 6.44L70.76 6.44Q71.12 6.62 71.12 7.52L71.12 7.52L71.12 7.52Q71.12 8.40 70.74 8.60L70.74 8.60L70.74 8.60Q70.53 8.69 70.37 8.71L70.37 8.71L70.37 8.71Q70.21 8.74 69.89 8.74ZM76.90 6.34L76.90 6.34L76.90 6.34Q77.17 6.43 77.34 6.63L77.34 6.63L77.34 6.63Q77.52 6.83 77.52 7.28L77.52 7.28L77.52 7.28Q77.52 7.73 77.25 8.26L77.25 8.26L77.25 8.26Q76.99 8.79 76.48 8.79L76.48 8.79L76.48 8.79Q76.23 8.79 76.00 8.68L76.00 8.68L76.00 8.68Q75.77 8.57 75.39 8.57L75.39 8.57L75.39 8.57Q75.01 8.57 74.68 8.83L74.68 8.83L74.68 8.83Q74.35 9.10 74.35 9.48L74.35 9.48L74.35 12.42L74.35 12.42Q74.35 12.74 74.33 12.90L74.33 12.90L74.33 12.90Q74.31 13.06 74.20 13.27L74.20 13.27L74.20 13.27Q73.99 13.64 73.11 13.64L73.11 13.64L73.11 13.64Q72.44 13.64 72.14 13.40L72.14 13.40L72.14 13.40Q71.92 13.20 71.89 12.80L71.89 12.80L71.89 12.80Q71.89 12.66 71.89 12.39L71.89 12.39L71.89 7.48L71.89 7.48Q71.89 7.15 71.91 6.99L71.91 6.99L71.91 6.99Q71.93 6.83 72.03 6.64L72.03 6.64L72.03 6.64Q72.23 6.26 73.12 6.26L73.12 6.26L73.12 6.26Q73.96 6.26 74.17 6.58L74.17 6.58L74.17 6.58Q74.33 6.80 74.33 7.04L74.33 7.04L74.33 7.04Q74.40 6.94 74.53 6.80L74.53 6.80L74.53 6.80Q74.66 6.66 75.10 6.43L75.10 6.43L75.10 6.43Q75.53 6.19 75.86 6.19L75.86 6.19L75.86 6.19Q76.19 6.19 76.41 6.22L76.41 6.22L76.41 6.22Q76.64 6.26 76.90 6.34ZM81.56 13.61L81.56 13.61L81.56 13.61Q80.15 13.61 79.22 12.54L79.22 12.54L79.22 12.54Q78.29 11.47 78.29 9.93L78.29 9.93L78.29 7.48L78.29 7.48Q78.29 7.14 78.31 6.99L78.31 6.99L78.31 6.99Q78.33 6.83 78.43 6.62L78.43 6.62L78.43 6.62Q78.62 6.24 79.52 6.24L79.52 6.24L79.52 6.24Q80.50 6.24 80.67 6.78L80.67 6.78L80.67 6.78Q80.75 7.00 80.75 7.49L80.75 7.49L80.75 9.94L80.75 9.94Q80.75 10.51 81.08 10.84L81.08 10.84L81.08 10.84Q81.41 11.16 81.96 11.16L81.96 11.16L81.96 11.16Q82.52 11.16 82.86 10.82L82.86 10.82L82.86 10.82Q83.20 10.49 83.20 9.94L83.20 9.94L83.20 7.46L83.20 7.46Q83.20 7.14 83.22 6.98L83.22 6.98L83.22 6.98Q83.24 6.82 83.36 6.61L83.36 6.61L83.36 6.61Q83.54 6.24 84.43 6.24L84.43 6.24L84.43 6.24Q85.32 6.24 85.51 6.62L85.51 6.62L85.51 6.62Q85.61 6.83 85.63 6.99L85.63 6.99L85.63 6.99Q85.65 7.15 85.65 7.48L85.65 7.48L85.65 12.43L85.65 12.43Q85.65 12.74 85.63 12.90L85.63 12.90L85.63 12.90Q85.61 13.06 85.50 13.26L85.50 13.26L85.50 13.26Q85.29 13.62 84.42 13.62L84.42 13.62L84.42 13.62Q83.57 13.62 83.37 13.29L83.37 13.29L83.37 13.29Q83.23 13.05 83.23 12.71L83.23 12.71L83.23 12.71Q83.17 12.81 82.98 12.99L82.98 12.99L82.98 12.99Q82.78 13.17 82.60 13.30L82.60 13.30L82.60 13.30Q82.12 13.61 81.56 13.61ZM89.08 9.95L89.08 9.95L89.08 9.95Q89.08 10.54 89.47 10.87L89.47 10.87L89.47 10.87Q89.87 11.20 90.31 11.20L90.31 11.20L90.31 11.20Q90.75 11.20 91.13 10.94L91.13 10.94L91.13 10.94Q91.52 10.68 91.76 10.68L91.76 10.68L91.76 10.68Q92.18 10.68 92.78 11.42L92.78 11.42L92.78 11.42Q93.10 11.83 93.10 12.15L93.10 12.15L93.10 12.15Q93.10 12.68 92.33 13.15L92.33 13.15L92.33 13.15Q91.53 13.71 90.37 13.71L90.37 13.71L90.37 13.71Q89.07 13.71 87.86 12.77L87.86 12.77L87.86 12.77Q87.29 12.32 86.93 11.57L86.93 11.57L86.93 11.57Q86.56 10.82 86.56 9.92L86.56 9.92L86.56 9.92Q86.56 9.02 86.93 8.28L86.93 8.28L86.93 8.28Q87.29 7.55 87.86 7.10L87.86 7.10L87.86 7.10Q89.03 6.17 90.34 6.17L90.34 6.17L90.34 6.17Q90.87 6.17 91.38 6.32L91.38 6.32L91.38 6.32Q91.88 6.47 92.12 6.61L92.12 6.61L92.34 6.75L92.34 6.75Q92.60 6.92 92.74 7.01L92.74 7.01L92.74 7.01Q93.10 7.29 93.10 7.65L93.10 7.65L93.10 7.65Q93.10 8.01 92.81 8.46L92.81 8.46L92.81 8.46Q92.30 9.23 91.84 9.23L91.84 9.23L91.84 9.23Q91.57 9.23 91.08 8.92L91.08 8.92L91.08 8.92Q90.83 8.68 90.36 8.68L90.36 8.68L90.36 8.68Q89.89 8.68 89.49 9.02L89.49 9.02L89.49 9.02Q89.08 9.35 89.08 9.95ZM96.18 9.95L96.18 9.95L96.18 9.95Q96.18 10.54 96.57 10.87L96.57 10.87L96.57 10.87Q96.96 11.20 97.40 11.20L97.40 11.20L97.40 11.20Q97.85 11.20 98.23 10.94L98.23 10.94L98.23 10.94Q98.62 10.68 98.85 10.68L98.85 10.68L98.85 10.68Q99.27 10.68 99.88 11.42L99.88 11.42L99.88 11.42Q100.20 11.83 100.20 12.15L100.20 12.15L100.20 12.15Q100.20 12.68 99.43 13.15L99.43 13.15L99.43 13.15Q98.63 13.71 97.47 13.71L97.47 13.71L97.47 13.71Q96.17 13.71 94.96 12.77L94.96 12.77L94.96 12.77Q94.39 12.32 94.02 11.57L94.02 11.57L94.02 11.57Q93.66 10.82 93.66 9.92L93.66 9.92L93.66 9.92Q93.66 9.02 94.02 8.28L94.02 8.28L94.02 8.28Q94.39 7.55 94.96 7.10L94.96 7.10L94.96 7.10Q96.12 6.17 97.44 6.17L97.44 6.17L97.44 6.17Q97.97 6.17 98.48 6.32L98.48 6.32L98.48 6.32Q98.98 6.47 99.22 6.61L99.22 6.61L99.44 6.75L99.44 6.75Q99.69 6.92 99.83 7.01L99.83 7.01L99.83 7.01Q100.20 7.29 100.20 7.65L100.20 7.65L100.20 7.65Q100.20 8.01 99.90 8.46L99.90 8.46L99.90 8.46Q99.40 9.23 98.94 9.23L98.94 9.23L98.94 9.23Q98.67 9.23 98.18 8.92L98.18 8.92L98.18 8.92Q97.93 8.68 97.46 8.68L97.46 8.68L97.46 8.68Q96.99 8.68 96.59 9.02L96.59 9.02L96.59 9.02Q96.18 9.35 96.18 9.95ZM101.11 12.40L101.11 7.49L101.11 7.49Q101.11 7.17 101.13 7.01L101.13 7.01L101.13 7.01Q101.15 6.85 101.25 6.64L101.25 6.64L101.25 6.64Q101.44 6.27 102.34 6.27L102.34 6.27L102.34 6.27Q103.01 6.27 103.29 6.51L103.29 6.51L103.29 6.51Q103.53 6.71 103.54 7.11L103.54 7.11L103.54 7.11Q103.56 7.25 103.56 7.52L103.56 7.52L103.56 12.42L103.56 12.42Q103.56 12.74 103.54 12.90L103.54 12.90L103.54 12.90Q103.52 13.06 103.40 13.27L103.40 13.27L103.40 13.27Q103.22 13.64 102.33 13.64L102.33 13.64L102.33 13.64Q101.44 13.64 101.25 13.26L101.25 13.26L101.25 13.26Q101.15 13.05 101.13 12.89L101.13 12.89L101.13 12.89Q101.11 12.74 101.11 12.40L101.11 12.40ZM103.41 4.89L103.41 4.89L103.41 4.89Q103.31 5.10 103.04 5.18L103.04 5.18L103.04 5.18Q102.77 5.26 102.33 5.26L102.33 5.26L102.33 5.26Q101.89 5.26 101.63 5.18L101.63 5.18L101.63 5.18Q101.36 5.10 101.25 4.89L101.25 4.89L101.25 4.89Q101.15 4.68 101.13 4.52L101.13 4.52L101.13 4.52Q101.11 4.35 101.11 4.03L101.11 4.03L101.11 4.03Q101.11 3.71 101.13 3.55L101.13 3.55L101.13 3.55Q101.15 3.39 101.25 3.19L101.25 3.19L101.25 3.19Q101.44 2.81 102.34 2.81L102.34 2.81L102.34 2.81Q103.22 2.81 103.40 3.19L103.40 3.19L103.40 3.19Q103.52 3.40 103.54 3.56L103.54 3.56L103.54 3.56Q103.56 3.72 103.56 4.05L103.56 4.05L103.56 4.05Q103.56 4.37 103.54 4.53L103.54 4.53L103.54 4.53Q103.52 4.69 103.41 4.89ZM104.47 9.95L104.47 9.95Q104.47 8.27 105.64 7.18L105.64 7.18L105.64 7.18Q106.82 6.09 108.33 6.09L108.33 6.09L108.33 6.09Q109.84 6.09 111.01 7.18L111.01 7.18L111.01 7.18Q112.17 8.26 112.17 9.94L112.17 9.94L112.17 9.94Q112.17 11.10 111.57 12.01L111.57 12.01L111.57 12.01Q110.96 12.91 110.10 13.34L110.10 13.34L110.10 13.34Q109.24 13.76 108.32 13.76L108.32 13.76L108.32 13.76Q107.39 13.76 106.53 13.31L106.53 13.31L106.53 13.31Q105.66 12.85 105.06 11.96L105.06 11.96L105.06 11.96Q104.47 11.07 104.47 9.95L104.47 9.95ZM107.39 10.96L107.39 10.96L107.39 10.96Q107.84 11.30 108.30 11.30L108.30 11.30L108.30 11.30Q108.77 11.30 109.23 10.95L109.23 10.95L109.23 10.95Q109.69 10.60 109.69 9.91L109.69 9.91L109.69 9.91Q109.69 9.23 109.26 8.89L109.26 8.89L109.26 8.89Q108.82 8.55 108.32 8.55L108.32 8.55L108.32 8.55Q107.81 8.55 107.38 8.90L107.38 8.90L107.38 8.90Q106.95 9.25 106.95 9.93L106.95 9.93L106.95 9.93Q106.95 10.61 107.39 10.96ZM117.18 6.26L117.18 6.26L117.18 6.26Q118.58 6.26 119.51 7.33L119.51 7.33L119.51 7.33Q120.44 8.40 120.44 9.94L120.44 9.94L120.44 12.40L120.44 12.40Q120.44 12.73 120.42 12.89L120.42 12.89L120.42 12.89Q120.40 13.05 120.30 13.24L120.30 13.24L120.30 13.24Q120.11 13.62 119.21 13.62L119.21 13.62L119.21 13.62Q118.22 13.62 118.06 13.10L118.06 13.10L118.06 13.10Q117.98 12.87 117.98 12.39L117.98 12.39L117.98 9.93L117.98 9.93Q117.98 9.35 117.65 9.03L117.65 9.03L117.65 9.03Q117.32 8.71 116.77 8.71L116.77 8.71L116.77 8.71Q116.21 8.71 115.87 9.04L115.87 9.04L115.87 9.04Q115.53 9.38 115.53 9.93L115.53 9.93L115.53 12.40L115.53 12.40Q115.53 12.73 115.51 12.89L115.51 12.89L115.51 12.89Q115.49 13.05 115.37 13.24L115.37 13.24L115.37 13.24Q115.19 13.62 114.30 13.62L114.30 13.62L114.30 13.62Q113.41 13.62 113.22 13.24L113.22 13.24L113.22 13.24Q113.12 13.03 113.10 12.87L113.10 12.87L113.10 12.87Q113.08 12.71 113.08 12.39L113.08 12.39L113.08 7.43L113.08 7.43Q113.08 7.13 113.10 6.97L113.10 6.97L113.10 6.97Q113.12 6.80 113.23 6.61L113.23 6.61L113.23 6.61Q113.43 6.26 114.31 6.26L114.31 6.26L114.31 6.26Q115.16 6.26 115.36 6.58L115.36 6.58L115.36 6.58Q115.50 6.82 115.50 7.15L115.50 7.15L115.50 7.15Q115.56 7.06 115.75 6.87L115.75 6.87L115.75 6.87Q115.95 6.69 116.13 6.58L116.13 6.58L116.13 6.58Q116.61 6.26 117.18 6.26ZM128.67 9.07L128.67 9.07L128.67 9.07Q128.67 9.93 128.25 10.34L128.25 10.34L128.25 10.34Q127.82 10.75 127.30 10.75L127.30 10.75L123.98 10.75L123.98 10.75Q123.98 11.14 124.45 11.41L124.45 11.41L124.45 11.41Q124.91 11.68 125.37 11.68L125.37 11.68L125.37 11.68Q126.18 11.68 126.64 11.51L126.64 11.51L126.80 11.45L126.80 11.45Q127.13 11.30 127.36 11.30L127.36 11.30L127.36 11.30Q127.81 11.30 128.13 11.93L128.13 11.93L128.13 11.93Q128.31 12.31 128.31 12.57L128.31 12.57L128.31 12.57Q128.31 13.82 125.33 13.82L125.33 13.82L125.33 13.82Q124.29 13.82 123.49 13.46L123.49 13.46L123.49 13.46Q122.68 13.10 122.23 12.52L122.23 12.52L122.23 12.52Q121.35 11.38 121.35 9.98L121.35 9.98L121.35 9.98Q121.35 8.22 122.49 7.16L122.49 7.16L122.49 7.16Q123.63 6.10 125.34 6.10L125.34 6.10L125.34 6.10Q127.29 6.10 128.20 7.48L128.20 7.48L128.20 7.48Q128.67 8.20 128.67 9.07ZM123.96 9.48L125.72 9.48L125.72 9.48Q126.25 9.48 126.25 9.03L126.25 9.03L126.25 9.03Q126.25 8.71 126.01 8.51L126.01 8.51L126.01 8.51Q125.76 8.32 125.31 8.32L125.31 8.32L125.31 8.32Q124.85 8.32 124.40 8.69L124.40 8.69L124.40 8.69Q123.96 9.06 123.96 9.48L123.96 9.48ZM129.64 12.98L129.64 12.98L129.64 12.98Q129.37 12.81 129.37 12.45L129.37 12.45L129.37 12.45Q129.37 12.08 129.91 11.34L129.91 11.34L129.91 11.34Q130.06 11.10 130.40 11.10L130.40 11.10L130.40 11.10Q130.75 11.10 131.33 11.45L131.33 11.45L131.33 11.45Q131.92 11.79 132.40 11.79L132.40 11.79L132.40 11.79Q133.25 11.79 133.25 11.45L133.25 11.45L133.25 11.45Q133.25 11.19 132.31 11.06L132.31 11.06L132.31 11.06Q131.43 10.93 130.56 10.40L130.56 10.40L130.56 10.40Q130.16 10.15 129.89 9.61L129.89 9.61L129.89 9.61Q129.63 9.07 129.63 8.33L129.63 8.33L129.63 8.33Q129.63 6.12 132.66 6.12L132.66 6.12L132.66 6.12Q133.66 6.12 134.71 6.59L134.71 6.59L134.71 6.59Q135.20 6.82 135.20 7.15L135.20 7.15L135.20 7.15Q135.20 7.49 134.89 7.98L134.89 7.98L134.89 7.98Q134.58 8.47 134.26 8.47L134.26 8.47L134.26 8.47Q134.09 8.47 133.64 8.26L133.64 8.26L133.64 8.26Q133.18 8.05 132.65 8.05L132.65 8.05L132.65 8.05Q131.82 8.05 131.82 8.36L131.82 8.36L131.82 8.36Q131.82 8.78 132.78 8.90L132.78 8.90L132.78 8.90Q133.70 9.00 134.57 9.44L134.57 9.44L134.57 9.44Q134.97 9.63 135.25 10.12L135.25 10.12L135.25 10.12Q135.52 10.60 135.52 11.33L135.52 11.33L135.52 11.33Q135.52 12.05 135.25 12.57L135.25 12.57L135.25 12.57Q134.97 13.08 134.48 13.33L134.48 13.33L134.48 13.33Q133.59 13.76 132.24 13.76L132.24 13.76L132.24 13.76Q130.89 13.76 129.64 12.98Z"></path></g><!----><g data-v-423bf9ae="" id="3a6c78fa-7070-4905-9006-6f10c4c46d87" transform="matrix(1.1111111111111112,0,0,1.1111111111111112,0.23339504665798216,0.44444444444444287)" stroke="none" fill="white"><path d="M91.039 55.502c-.071 2.669-2.113 4.711-4.782 4.782-2.669-.071-4.711-2.113-4.783-4.782a2.24 2.24 0 0 0-.04-.358c.025-.133.04-.273.04-.424V12.9L93.21 6.728C96.451 5.024 94.881 0 91.388 0H3.61C2.488 0 1.64.421 1.059 1.057.422 1.638 0 2.488 0 3.61v22.072c0 1.968 1.642 3.611 3.61 3.611h10.124l-6.025 51.98-1.752 15.116C5.73 98.349 7.771 100 9.568 100c2.14 0 3.384-1.655 3.61-3.61l.48-4.141 19.161-16.793 19.029 16.678.132.115c.16 1.38.319 2.761.48 4.141.226 1.955 1.471 3.61 3.61 3.61 1.796 0 3.837-1.65 3.61-3.61L53.237 40.8l-1.426-12.302.08-.039 25.644-13.487V54.721c0 .125.012.241.03.354a2.185 2.185 0 0 0-.03.429c.126 4.688 3.651 8.343 8.27 8.688.141.025.291.037.452.033.161.004.312-.008.452-.033 4.618-.346 8.143-4.001 8.27-8.688.068-2.544-3.872-2.537-3.94-.002zM32.575 29.293h5.394l-5.15 4.549-5.15-4.549H32.575zm-12.007 3.344l6.808 6.014-8.361 7.386.607-5.237.946-8.163zm12.251 10.821L45.557 54.71 32.819 65.874 20.081 54.71l12.738-11.252zm5.443-4.808l6.808-6.014 1.553 13.4-8.361-7.386zM14.895 81.584l2.297-19.825c3.387 2.969 6.774 5.938 10.161 8.905l-12.458 10.92zm23.39-10.919l10.161-8.905 2.262 19.514.036.312-12.459-10.921zm10.249-48.593H7.222V7.221H76.774c-9.415 4.95-18.828 9.901-28.24 14.851z"></path></g><!----><g data-v-423bf9ae="" id="026e062c-5a6e-4991-a30d-c53e592af7c2" fill="white" transform="matrix(1.5297633460679705,0,0,1.5297633460679705,124.9977871335447,55.08945926920008)"><path d="M6.97 10.95L6.97 10.95L7.22 10.77L7.22 10.77Q7.70 10.49 7.90 10.49L7.90 10.49L7.90 10.49Q8.33 10.49 8.83 11.27L8.83 11.27L8.83 11.27Q9.14 11.76 9.14 12.05L9.14 12.05L9.14 12.05Q9.14 12.35 8.95 12.54L8.95 12.54L8.95 12.54Q8.76 12.74 8.51 12.89L8.51 12.89L8.51 12.89Q8.26 13.05 8.03 13.19L8.03 13.19L8.03 13.19Q7.80 13.33 7.08 13.55L7.08 13.55L7.08 13.55Q6.37 13.78 5.71 13.78L5.71 13.78L5.71 13.78Q5.04 13.78 4.36 13.60L4.36 13.60L4.36 13.60Q3.68 13.43 2.96 13.01L2.96 13.01L2.96 13.01Q2.24 12.60 1.67 12.01L1.67 12.01L1.67 12.01Q1.09 11.41 0.72 10.48L0.72 10.48L0.72 10.48Q0.35 9.55 0.35 8.46L0.35 8.46L0.35 8.46Q0.35 7.36 0.71 6.48L0.71 6.48L0.71 6.48Q1.08 5.59 1.65 5.01L1.65 5.01L1.65 5.01Q2.21 4.42 2.94 4.03L2.94 4.03L2.94 4.03Q4.31 3.28 5.70 3.28L5.70 3.28L5.70 3.28Q6.36 3.28 7.04 3.48L7.04 3.48L7.04 3.48Q7.71 3.68 8.06 3.89L8.06 3.89L8.40 4.09L8.40 4.09Q8.65 4.24 8.79 4.34L8.79 4.34L8.79 4.34Q9.16 4.63 9.16 5.01L9.16 5.01L9.16 5.01Q9.16 5.38 8.86 5.78L8.86 5.78L8.86 5.78Q8.32 6.54 7.88 6.54L7.88 6.54L7.88 6.54Q7.63 6.54 7.17 6.23L7.17 6.23L7.17 6.23Q6.58 5.75 5.60 5.75L5.60 5.75L5.60 5.75Q4.69 5.75 3.81 6.38L3.81 6.38L3.81 6.38Q3.39 6.69 3.11 7.25L3.11 7.25L3.11 7.25Q2.83 7.81 2.83 8.52L2.83 8.52L2.83 8.52Q2.83 9.23 3.11 9.79L3.11 9.79L3.11 9.79Q3.39 10.35 3.82 10.67L3.82 10.67L3.82 10.67Q4.68 11.28 5.60 11.28L5.60 11.28L5.60 11.28Q6.03 11.28 6.42 11.17L6.42 11.17L6.42 11.17Q6.80 11.06 6.97 10.95ZM14.88 3.25L14.88 3.25L14.88 3.25Q16.95 3.25 18.48 4.75L18.48 4.75L18.48 4.75Q20.01 6.24 20.01 8.46L20.01 8.46L20.01 8.46Q20.01 10.68 18.55 12.24L18.55 12.24L18.55 12.24Q17.09 13.80 14.97 13.80L14.97 13.80L14.97 13.80Q12.84 13.80 11.35 12.26L11.35 12.26L11.35 12.26Q9.86 10.72 9.86 8.60L9.86 8.60L9.86 8.60Q9.86 7.43 10.28 6.42L10.28 6.42L10.28 6.42Q10.70 5.40 11.40 4.72L11.40 4.72L11.40 4.72Q12.10 4.03 13.01 3.64L13.01 3.64L13.01 3.64Q13.92 3.25 14.88 3.25ZM12.33 8.53L12.33 8.53L12.33 8.53Q12.33 9.77 13.14 10.55L13.14 10.55L13.14 10.55Q13.94 11.33 14.94 11.33L14.94 11.33L14.94 11.33Q15.93 11.33 16.73 10.57L16.73 10.57L16.73 10.57Q17.53 9.81 17.53 8.54L17.53 8.54L17.53 8.54Q17.53 7.27 16.72 6.50L16.72 6.50L16.72 6.50Q15.92 5.73 14.92 5.73L14.92 5.73L14.92 5.73Q13.93 5.73 13.13 6.50L13.13 6.50L13.13 6.50Q12.33 7.28 12.33 8.53ZM27.55 3.80L27.55 3.80L27.55 3.80Q27.68 3.56 27.94 3.47L27.94 3.47L27.94 3.47Q28.21 3.39 28.61 3.39L28.61 3.39L28.61 3.39Q29.01 3.39 29.25 3.46L29.25 3.46L29.25 3.46Q29.50 3.53 29.62 3.63L29.62 3.63L29.62 3.63Q29.74 3.72 29.79 3.92L29.79 3.92L29.79 3.92Q29.88 4.14 29.88 4.63L29.88 4.63L29.88 12.40L29.88 12.40Q29.88 12.74 29.86 12.89L29.86 12.89L29.86 12.89Q29.83 13.05 29.72 13.26L29.72 13.26L29.72 13.26Q29.53 13.64 28.63 13.64L28.63 13.64L28.63 13.64Q28.08 13.64 27.87 13.55L27.87 13.55L27.87 13.55Q27.66 13.47 27.52 13.29L27.52 13.29L27.52 13.29Q24.37 9.09 23.38 7.80L23.38 7.80L23.38 12.40L23.38 12.40Q23.38 12.74 23.36 12.89L23.36 12.89L23.36 12.89Q23.34 13.05 23.23 13.26L23.23 13.26L23.23 13.26Q23.03 13.64 22.13 13.64L22.13 13.64L22.13 13.64Q21.27 13.64 21.07 13.26L21.07 13.26L21.07 13.26Q20.96 13.05 20.94 12.88L20.94 12.88L20.94 12.88Q20.92 12.71 20.92 12.39L20.92 12.39L20.92 4.58L20.92 4.58Q20.92 4.05 21.05 3.80L21.05 3.80L21.05 3.80Q21.18 3.56 21.45 3.47L21.45 3.47L21.45 3.47Q21.71 3.39 22.13 3.39L22.13 3.39L22.13 3.39Q22.55 3.39 22.80 3.47L22.80 3.47L22.80 3.47Q23.04 3.54 23.14 3.64L23.14 3.64L23.14 3.64Q23.20 3.68 23.46 4.00L23.46 4.00L23.46 4.00Q26.42 8.02 27.41 9.31L27.41 9.31L27.41 4.58L27.41 4.58Q27.41 4.05 27.55 3.80ZM31.28 12.35L31.15 12.19L31.15 12.19Q30.79 11.75 30.79 11.39L30.79 11.39L30.79 11.39Q30.79 11.03 31.39 10.44L31.39 10.44L31.39 10.44Q31.74 10.11 32.13 10.11L32.13 10.11L32.13 10.11Q32.52 10.11 33.22 10.81L33.22 10.81L33.22 10.81Q33.42 11.05 33.78 11.26L33.78 11.26L33.78 11.26Q34.15 11.48 34.45 11.48L34.45 11.48L34.45 11.48Q35.76 11.48 35.76 10.42L35.76 10.42L35.76 10.42Q35.76 10.09 35.40 9.88L35.40 9.88L35.40 9.88Q35.04 9.66 34.51 9.56L34.51 9.56L34.51 9.56Q33.98 9.46 33.36 9.25L33.36 9.25L33.36 9.25Q32.75 9.03 32.21 8.74L32.21 8.74L32.21 8.74Q31.68 8.44 31.32 7.81L31.32 7.81L31.32 7.81Q30.97 7.17 30.97 6.27L30.97 6.27L30.97 6.27Q30.97 5.04 31.89 4.12L31.89 4.12L31.89 4.12Q32.80 3.21 34.38 3.21L34.38 3.21L34.38 3.21Q35.22 3.21 35.92 3.42L35.92 3.42L35.92 3.42Q36.61 3.64 36.88 3.86L36.88 3.86L37.23 4.13L37.23 4.13Q37.66 4.54 37.66 4.82L37.66 4.82L37.66 4.82Q37.66 5.10 37.32 5.59L37.32 5.59L37.32 5.59Q36.85 6.29 36.34 6.29L36.34 6.29L36.34 6.29Q36.05 6.29 35.62 6.01L35.62 6.01L35.62 6.01Q35.57 5.98 35.45 5.87L35.45 5.87L35.45 5.87Q35.34 5.75 35.24 5.68L35.24 5.68L35.24 5.68Q34.94 5.50 34.49 5.50L34.49 5.50L34.49 5.50Q34.03 5.50 33.73 5.72L33.73 5.72L33.73 5.72Q33.43 5.94 33.43 6.32L33.43 6.32L33.43 6.32Q33.43 6.71 33.79 6.94L33.79 6.94L33.79 6.94Q34.15 7.18 34.68 7.27L34.68 7.27L34.68 7.27Q35.21 7.35 35.84 7.53L35.84 7.53L35.84 7.53Q36.47 7.70 37.00 7.95L37.00 7.95L37.00 7.95Q37.53 8.20 37.89 8.83L37.89 8.83L37.89 8.83Q38.25 9.45 38.25 10.36L38.25 10.36L38.25 10.36Q38.25 11.27 37.88 11.96L37.88 11.96L37.88 11.96Q37.52 12.66 36.93 13.03L36.93 13.03L36.93 13.03Q35.80 13.78 34.51 13.78L34.51 13.78L34.51 13.78Q33.85 13.78 33.26 13.62L33.26 13.62L33.26 13.62Q32.68 13.45 32.31 13.22L32.31 13.22L32.31 13.22Q31.57 12.77 31.28 12.35L31.28 12.35ZM39.83 3.36L39.83 3.36L47.61 3.36L47.61 3.36Q48.06 3.36 48.27 3.47L48.27 3.47L48.27 3.47Q48.48 3.57 48.55 3.79L48.55 3.79L48.55 3.79Q48.62 4.02 48.62 4.38L48.62 4.38L48.62 4.38Q48.62 4.75 48.55 4.96L48.55 4.96L48.55 4.96Q48.48 5.18 48.31 5.26L48.31 5.26L48.31 5.26Q48.06 5.39 47.60 5.39L47.60 5.39L44.93 5.39L44.93 12.43L44.93 12.43Q44.93 12.75 44.91 12.91L44.91 12.91L44.91 12.91Q44.88 13.06 44.78 13.27L44.78 13.27L44.78 13.27Q44.67 13.47 44.41 13.55L44.41 13.55L44.41 13.55Q44.14 13.64 43.71 13.64L43.71 13.64L43.71 13.64Q43.27 13.64 43.02 13.55L43.02 13.55L43.02 13.55Q42.76 13.47 42.65 13.27L42.65 13.27L42.65 13.27Q42.55 13.06 42.52 12.90L42.52 12.90L42.52 12.90Q42.50 12.74 42.50 12.42L42.50 12.42L42.50 5.39L39.82 5.39L39.82 5.39Q39.37 5.39 39.16 5.29L39.16 5.29L39.16 5.29Q38.95 5.18 38.88 4.96L38.88 4.96L38.88 4.96Q38.81 4.73 38.81 4.37L38.81 4.37L38.81 4.37Q38.81 4.00 38.88 3.79L38.88 3.79L38.88 3.79Q38.95 3.57 39.12 3.49L39.12 3.49L39.12 3.49Q39.37 3.36 39.83 3.36ZM57.25 11.90L57.25 11.90L57.25 11.90Q57.46 12.40 57.46 12.63L57.46 12.63L57.46 12.63Q57.46 13.16 56.59 13.52L56.59 13.52L56.59 13.52Q56.14 13.72 55.87 13.72L55.87 13.72L55.87 13.72Q55.59 13.72 55.42 13.59L55.42 13.59L55.42 13.59Q55.24 13.45 55.16 13.31L55.16 13.31L55.16 13.31Q55.02 13.05 54.07 10.78L54.07 10.78L53.63 10.81L51.87 10.81L51.87 12.39L51.87 12.39Q51.87 12.71 51.85 12.87L51.85 12.87L51.85 12.87Q51.83 13.03 51.72 13.24L51.72 13.24L51.72 13.24Q51.52 13.62 50.62 13.62L50.62 13.62L50.62 13.62Q49.64 13.62 49.48 13.10L49.48 13.10L49.48 13.10Q49.39 12.87 49.39 12.38L49.39 12.38L49.39 4.61L49.39 4.61Q49.39 4.28 49.41 4.12L49.41 4.12L49.41 4.12Q49.43 3.96 49.55 3.75L49.55 3.75L49.55 3.75Q49.74 3.37 50.64 3.37L50.64 3.37L53.66 3.37L53.66 3.37Q54.89 3.37 56.06 4.27L56.06 4.27L56.06 4.27Q56.62 4.70 56.98 5.45L56.98 5.45L56.98 5.45Q57.34 6.19 57.34 7.10L57.34 7.10L57.34 7.10Q57.34 8.68 56.29 9.70L56.29 9.70L56.29 9.70Q56.60 10.44 57.25 11.90ZM51.87 5.85L51.87 8.33L53.66 8.33L53.66 8.33Q54.07 8.33 54.47 8.02L54.47 8.02L54.47 8.02Q54.88 7.71 54.88 7.10L54.88 7.10L54.88 7.10Q54.88 6.48 54.47 6.17L54.47 6.17L54.47 6.17Q54.07 5.85 53.63 5.85L53.63 5.85L51.87 5.85ZM64.93 3.75L64.93 3.75L64.93 3.75Q65.07 3.53 65.34 3.44L65.34 3.44L65.34 3.44Q65.60 3.36 66.00 3.36L66.00 3.36L66.00 3.36Q66.40 3.36 66.64 3.43L66.64 3.43L66.64 3.43Q66.88 3.50 67.00 3.60L67.00 3.60L67.00 3.60Q67.13 3.70 67.19 3.89L67.19 3.89L67.19 3.89Q67.27 4.13 67.27 4.62L67.27 4.62L67.27 8.85L67.27 8.85Q67.27 10.70 66.12 12.21L66.12 12.21L66.12 12.21Q65.56 12.92 64.68 13.36L64.68 13.36L64.68 13.36Q63.80 13.80 62.73 13.80L62.73 13.80L62.73 13.80Q61.66 13.80 60.78 13.36L60.78 13.36L60.78 13.36Q59.91 12.91 59.36 12.18L59.36 12.18L59.36 12.18Q58.23 10.70 58.23 8.82L58.23 8.82L58.23 4.61L58.23 4.61Q58.23 4.27 58.25 4.11L58.25 4.11L58.25 4.11Q58.27 3.95 58.38 3.74L58.38 3.74L58.38 3.74Q58.49 3.53 58.76 3.44L58.76 3.44L58.76 3.44Q59.02 3.36 59.47 3.36L59.47 3.36L59.47 3.36Q59.92 3.36 60.19 3.44L60.19 3.44L60.19 3.44Q60.45 3.53 60.55 3.74L60.55 3.74L60.55 3.74Q60.72 4.06 60.72 4.62L60.72 4.62L60.72 8.82L60.72 8.82Q60.72 9.67 61.14 10.44L61.14 10.44L61.14 10.44Q61.35 10.84 61.77 11.07L61.77 11.07L61.77 11.07Q62.19 11.31 62.76 11.31L62.76 11.31L62.76 11.31Q63.78 11.31 64.29 10.56L64.29 10.56L64.29 10.56Q64.79 9.80 64.79 8.81L64.79 8.81L64.79 4.52L64.79 4.52Q64.79 3.98 64.93 3.75ZM76.54 3.57L76.54 3.57L76.54 3.57Q77.22 4.05 77.22 4.49L77.22 4.49L77.22 4.49Q77.22 4.76 76.90 5.24L76.90 5.24L73.88 9.76L73.88 12.43L73.88 12.43Q73.88 12.75 73.86 12.92L73.86 12.92L73.86 12.92Q73.84 13.08 73.72 13.29L73.72 13.29L73.72 13.29Q73.61 13.50 73.35 13.58L73.35 13.58L73.35 13.58Q73.08 13.66 72.63 13.66L72.63 13.66L72.63 13.66Q72.18 13.66 71.92 13.58L71.92 13.58L71.92 13.58Q71.65 13.50 71.54 13.28L71.54 13.28L71.54 13.28Q71.43 13.06 71.41 12.90L71.41 12.90L71.41 12.90Q71.39 12.74 71.39 12.40L71.39 12.40L71.39 9.76L68.36 5.24L68.36 5.24Q68.04 4.76 68.04 4.49L68.04 4.49L68.04 4.49Q68.04 4.05 68.66 3.63L68.66 3.63L68.66 3.63Q69.27 3.22 69.54 3.22L69.54 3.22L69.54 3.22Q69.80 3.22 69.96 3.33L69.96 3.33L69.96 3.33Q70.20 3.49 70.46 3.91L70.46 3.91L72.63 7.38L74.80 3.91L74.80 3.91Q75.07 3.49 75.26 3.35L75.26 3.35L75.26 3.35Q75.46 3.22 75.72 3.22L75.72 3.22L75.72 3.22Q75.98 3.22 76.54 3.57ZM80.47 9.74L80.47 11.16L84.78 11.16L84.78 11.16Q85.11 11.16 85.27 11.18L85.27 11.18L85.27 11.18Q85.43 11.20 85.64 11.31L85.64 11.31L85.64 11.31Q86.02 11.51 86.02 12.40L86.02 12.40L86.02 12.40Q86.02 13.38 85.50 13.55L85.50 13.55L85.50 13.55Q85.26 13.64 84.77 13.64L84.77 13.64L79.23 13.64L79.23 13.64Q78.25 13.64 78.08 13.10L78.08 13.10L78.08 13.10Q77.99 12.88 77.99 12.39L77.99 12.39L77.99 4.61L77.99 4.61Q77.99 3.89 78.26 3.63L78.26 3.63L78.26 3.63Q78.53 3.37 79.27 3.37L79.27 3.37L84.78 3.37L84.78 3.37Q85.11 3.37 85.27 3.40L85.27 3.40L85.27 3.40Q85.43 3.42 85.64 3.53L85.64 3.53L85.64 3.53Q86.02 3.72 86.02 4.62L86.02 4.62L86.02 4.62Q86.02 5.60 85.50 5.77L85.50 5.77L85.50 5.77Q85.26 5.85 84.77 5.85L84.77 5.85L80.47 5.85L80.47 7.27L83.24 7.27L83.24 7.27Q83.57 7.27 83.73 7.29L83.73 7.29L83.73 7.29Q83.89 7.31 84.10 7.42L84.10 7.42L84.10 7.42Q84.48 7.62 84.48 8.51L84.48 8.51L84.48 8.51Q84.48 9.49 83.94 9.66L83.94 9.66L83.94 9.66Q83.71 9.74 83.22 9.74L83.22 9.74L80.47 9.74ZM93.56 3.80L93.56 3.80L93.56 3.80Q93.69 3.56 93.95 3.47L93.95 3.47L93.95 3.47Q94.22 3.39 94.62 3.39L94.62 3.39L94.62 3.39Q95.02 3.39 95.26 3.46L95.26 3.46L95.26 3.46Q95.51 3.53 95.63 3.63L95.63 3.63L95.63 3.63Q95.75 3.72 95.80 3.92L95.80 3.92L95.80 3.92Q95.89 4.14 95.89 4.63L95.89 4.63L95.89 12.40L95.89 12.40Q95.89 12.74 95.86 12.89L95.86 12.89L95.86 12.89Q95.84 13.05 95.73 13.26L95.73 13.26L95.73 13.26Q95.54 13.64 94.64 13.64L94.64 13.64L94.64 13.64Q94.09 13.64 93.88 13.55L93.88 13.55L93.88 13.55Q93.67 13.47 93.53 13.29L93.53 13.29L93.53 13.29Q90.38 9.09 89.39 7.80L89.39 7.80L89.39 12.40L89.39 12.40Q89.39 12.74 89.37 12.89L89.37 12.89L89.37 12.89Q89.35 13.05 89.24 13.26L89.24 13.26L89.24 13.26Q89.04 13.64 88.14 13.64L88.14 13.64L88.14 13.64Q87.28 13.64 87.08 13.26L87.08 13.26L87.08 13.26Q86.97 13.05 86.95 12.88L86.95 12.88L86.95 12.88Q86.93 12.71 86.93 12.39L86.93 12.39L86.93 4.58L86.93 4.58Q86.93 4.05 87.06 3.80L87.06 3.80L87.06 3.80Q87.19 3.56 87.46 3.47L87.46 3.47L87.46 3.47Q87.72 3.39 88.14 3.39L88.14 3.39L88.14 3.39Q88.56 3.39 88.81 3.47L88.81 3.47L88.81 3.47Q89.05 3.54 89.15 3.64L89.15 3.64L89.15 3.64Q89.21 3.68 89.47 4.00L89.47 4.00L89.47 4.00Q92.43 8.02 93.42 9.31L93.42 9.31L93.42 4.58L93.42 4.58Q93.42 4.05 93.56 3.80ZM98.25 3.36L98.25 3.36L100.84 3.37L100.84 3.37Q102.87 3.37 104.41 4.84L104.41 4.84L104.41 4.84Q105.95 6.30 105.95 8.44L105.95 8.44L105.95 8.44Q105.95 10.57 104.45 12.10L104.45 12.10L104.45 12.10Q102.94 13.62 100.80 13.62L100.80 13.62L98.24 13.62L98.24 13.62Q97.38 13.62 97.17 13.27L97.17 13.27L97.17 13.27Q97.01 12.98 97.01 12.38L97.01 12.38L97.01 4.59L97.01 4.59Q97.01 4.26 97.03 4.10L97.03 4.10L97.03 4.10Q97.05 3.95 97.16 3.74L97.16 3.74L97.16 3.74Q97.36 3.36 98.25 3.36ZM100.84 11.14L100.84 11.14Q101.85 11.14 102.66 10.40L102.66 10.40L102.66 10.40Q103.47 9.65 103.47 8.51L103.47 8.51L103.47 8.51Q103.47 7.38 102.68 6.62L102.68 6.62L102.68 6.62Q101.89 5.85 100.83 5.85L100.83 5.85L99.48 5.85L99.48 11.14L100.84 11.14ZM111.68 3.25L111.68 3.25L111.68 3.25Q113.75 3.25 115.28 4.75L115.28 4.75L115.28 4.75Q116.80 6.24 116.80 8.46L116.80 8.46L116.80 8.46Q116.80 10.68 115.35 12.24L115.35 12.24L115.35 12.24Q113.89 13.80 111.76 13.80L111.76 13.80L111.76 13.80Q109.63 13.80 108.14 12.26L108.14 12.26L108.14 12.26Q106.65 10.72 106.65 8.60L106.65 8.60L106.65 8.60Q106.65 7.43 107.07 6.42L107.07 6.42L107.07 6.42Q107.49 5.40 108.19 4.72L108.19 4.72L108.19 4.72Q108.89 4.03 109.80 3.64L109.80 3.64L109.80 3.64Q110.71 3.25 111.68 3.25ZM109.13 8.53L109.13 8.53L109.13 8.53Q109.13 9.77 109.93 10.55L109.93 10.55L109.93 10.55Q110.74 11.33 111.73 11.33L111.73 11.33L111.73 11.33Q112.73 11.33 113.53 10.57L113.53 10.57L113.53 10.57Q114.32 9.81 114.32 8.54L114.32 8.54L114.32 8.54Q114.32 7.27 113.52 6.50L113.52 6.50L113.52 6.50Q112.71 5.73 111.72 5.73L111.72 5.73L111.72 5.73Q110.73 5.73 109.93 6.50L109.93 6.50L109.93 6.50Q109.13 7.28 109.13 8.53ZM121.93 3.36L121.93 3.36L129.71 3.36L129.71 3.36Q130.16 3.36 130.37 3.47L130.37 3.47L130.37 3.47Q130.58 3.57 130.65 3.79L130.65 3.79L130.65 3.79Q130.72 4.02 130.72 4.38L130.72 4.38L130.72 4.38Q130.72 4.75 130.65 4.96L130.65 4.96L130.65 4.96Q130.58 5.18 130.41 5.26L130.41 5.26L130.41 5.26Q130.16 5.39 129.70 5.39L129.70 5.39L127.02 5.39L127.02 12.43L127.02 12.43Q127.02 12.75 127.00 12.91L127.00 12.91L127.00 12.91Q126.98 13.06 126.87 13.27L126.87 13.27L126.87 13.27Q126.77 13.47 126.50 13.55L126.50 13.55L126.50 13.55Q126.24 13.64 125.80 13.64L125.80 13.64L125.80 13.64Q125.37 13.64 125.11 13.55L125.11 13.55L125.11 13.55Q124.85 13.47 124.75 13.27L124.75 13.27L124.75 13.27Q124.64 13.06 124.62 12.90L124.62 12.90L124.62 12.90Q124.60 12.74 124.60 12.42L124.60 12.42L124.60 5.39L121.91 5.39L121.91 5.39Q121.46 5.39 121.25 5.29L121.25 5.29L121.25 5.29Q121.04 5.18 120.97 4.96L120.97 4.96L120.97 4.96Q120.90 4.73 120.90 4.37L120.90 4.37L120.90 4.37Q120.90 4.00 120.97 3.79L120.97 3.79L120.97 3.79Q121.04 3.57 121.21 3.49L121.21 3.49L121.21 3.49Q121.46 3.36 121.93 3.36ZM138.19 3.75L138.19 3.75L138.19 3.75Q138.33 3.53 138.60 3.44L138.60 3.44L138.60 3.44Q138.87 3.36 139.26 3.36L139.26 3.36L139.26 3.36Q139.66 3.36 139.90 3.43L139.90 3.43L139.90 3.43Q140.14 3.50 140.27 3.60L140.27 3.60L140.27 3.60Q140.39 3.70 140.45 3.89L140.45 3.89L140.45 3.89Q140.53 4.13 140.53 4.62L140.53 4.62L140.53 8.85L140.53 8.85Q140.53 10.70 139.38 12.21L139.38 12.21L139.38 12.21Q138.82 12.92 137.94 13.36L137.94 13.36L137.94 13.36Q137.06 13.80 135.99 13.80L135.99 13.80L135.99 13.80Q134.92 13.80 134.04 13.36L134.04 13.36L134.04 13.36Q133.17 12.91 132.62 12.18L132.62 12.18L132.62 12.18Q131.49 10.70 131.49 8.82L131.49 8.82L131.49 4.61L131.49 4.61Q131.49 4.27 131.51 4.11L131.51 4.11L131.51 4.11Q131.53 3.95 131.64 3.74L131.64 3.74L131.64 3.74Q131.75 3.53 132.02 3.44L132.02 3.44L132.02 3.44Q132.29 3.36 132.73 3.36L132.73 3.36L132.73 3.36Q133.18 3.36 133.45 3.44L133.45 3.44L133.45 3.44Q133.71 3.53 133.81 3.74L133.81 3.74L133.81 3.74Q133.98 4.06 133.98 4.62L133.98 4.62L133.98 8.82L133.98 8.82Q133.98 9.67 134.40 10.44L134.40 10.44L134.40 10.44Q134.61 10.84 135.03 11.07L135.03 11.07L135.03 11.07Q135.45 11.31 136.02 11.31L136.02 11.31L136.02 11.31Q137.05 11.31 137.55 10.56L137.55 10.56L137.55 10.56Q138.05 9.80 138.05 8.81L138.05 8.81L138.05 4.52L138.05 4.52Q138.05 3.98 138.19 3.75ZM141.51 12.35L141.39 12.19L141.39 12.19Q141.02 11.75 141.02 11.39L141.02 11.39L141.02 11.39Q141.02 11.03 141.62 10.44L141.62 10.44L141.62 10.44Q141.97 10.11 142.37 10.11L142.37 10.11L142.37 10.11Q142.76 10.11 143.46 10.81L143.46 10.81L143.46 10.81Q143.65 11.05 144.02 11.26L144.02 11.26L144.02 11.26Q144.38 11.48 144.69 11.48L144.69 11.48L144.69 11.48Q145.99 11.48 145.99 10.42L145.99 10.42L145.99 10.42Q145.99 10.09 145.63 9.88L145.63 9.88L145.63 9.88Q145.28 9.66 144.75 9.56L144.75 9.56L144.75 9.56Q144.21 9.46 143.60 9.25L143.60 9.25L143.60 9.25Q142.98 9.03 142.45 8.74L142.45 8.74L142.45 8.74Q141.92 8.44 141.56 7.81L141.56 7.81L141.56 7.81Q141.20 7.17 141.20 6.27L141.20 6.27L141.20 6.27Q141.20 5.04 142.12 4.12L142.12 4.12L142.12 4.12Q143.04 3.21 144.62 3.21L144.62 3.21L144.62 3.21Q145.46 3.21 146.15 3.42L146.15 3.42L146.15 3.42Q146.85 3.64 147.11 3.86L147.11 3.86L147.46 4.13L147.46 4.13Q147.90 4.54 147.90 4.82L147.90 4.82L147.90 4.82Q147.90 5.10 147.56 5.59L147.56 5.59L147.56 5.59Q147.08 6.29 146.58 6.29L146.58 6.29L146.58 6.29Q146.29 6.29 145.85 6.01L145.85 6.01L145.85 6.01Q145.81 5.98 145.69 5.87L145.69 5.87L145.69 5.87Q145.57 5.75 145.47 5.68L145.47 5.68L145.47 5.68Q145.18 5.50 144.72 5.50L144.72 5.50L144.72 5.50Q144.27 5.50 143.97 5.72L143.97 5.72L143.97 5.72Q143.67 5.94 143.67 6.32L143.67 6.32L143.67 6.32Q143.67 6.71 144.03 6.94L144.03 6.94L144.03 6.94Q144.38 7.18 144.91 7.27L144.91 7.27L144.91 7.27Q145.45 7.35 146.08 7.53L146.08 7.53L146.08 7.53Q146.71 7.70 147.24 7.95L147.24 7.95L147.24 7.95Q147.77 8.20 148.13 8.83L148.13 8.83L148.13 8.83Q148.48 9.45 148.48 10.36L148.48 10.36L148.48 10.36Q148.48 11.27 148.12 11.96L148.12 11.96L148.12 11.96Q147.76 12.66 147.17 13.03L147.17 13.03L147.17 13.03Q146.03 13.78 144.75 13.78L144.75 13.78L144.75 13.78Q144.09 13.78 143.50 13.62L143.50 13.62L143.50 13.62Q142.91 13.45 142.55 13.22L142.55 13.22L142.55 13.22Q141.81 12.77 141.51 12.35L141.51 12.35ZM162.30 3.53L162.30 3.53L162.30 3.53Q163.13 3.93 163.13 4.42L163.13 4.42L163.13 4.42Q163.13 4.65 162.92 5.10L162.92 5.10L159.05 12.94L159.05 12.94Q158.90 13.24 158.59 13.43L158.59 13.43L158.59 13.43Q158.27 13.62 157.93 13.62L157.93 13.62L157.79 13.62L157.79 13.62Q157.44 13.62 157.13 13.43L157.13 13.43L157.13 13.43Q156.81 13.24 156.66 12.94L156.66 12.94L152.80 5.10L152.80 5.10Q152.59 4.65 152.59 4.42L152.59 4.42L152.59 4.42Q152.59 3.93 153.41 3.53L153.41 3.53L153.41 3.53Q153.87 3.29 154.12 3.29L154.12 3.29L154.12 3.29Q154.36 3.29 154.49 3.35L154.49 3.35L154.49 3.35Q154.62 3.40 154.73 3.54L154.73 3.54L154.73 3.54Q154.85 3.71 154.96 3.91L154.96 3.91L154.96 3.91Q155.06 4.12 155.50 5.08L155.50 5.08L155.50 5.08Q155.93 6.03 156.43 7.11L156.43 7.11L156.43 7.11Q156.93 8.19 157.37 9.15L157.37 9.15L157.37 9.15Q157.81 10.11 157.86 10.22L157.86 10.22L160.66 4.09L160.66 4.09Q160.78 3.82 160.86 3.67L160.86 3.67L160.86 3.67Q161.11 3.29 161.48 3.29L161.48 3.29L161.48 3.29Q161.84 3.29 162.30 3.53ZM163.90 12.39L163.90 4.61L163.90 4.61Q163.90 4.28 163.92 4.12L163.92 4.12L163.92 4.12Q163.94 3.96 164.05 3.75L164.05 3.75L164.05 3.75Q164.25 3.37 165.14 3.37L165.14 3.37L165.14 3.37Q166.12 3.37 166.31 3.89L166.31 3.89L166.31 3.89Q166.38 4.13 166.38 4.62L166.38 4.62L166.38 12.40L166.38 12.40Q166.38 12.74 166.35 12.89L166.35 12.89L166.35 12.89Q166.33 13.05 166.22 13.26L166.22 13.26L166.22 13.26Q166.03 13.64 165.13 13.64L165.13 13.64L165.13 13.64Q164.15 13.64 163.98 13.10L163.98 13.10L163.98 13.10Q163.90 12.88 163.90 12.39L163.90 12.39ZM167.78 12.35L167.65 12.19L167.65 12.19Q167.29 11.75 167.29 11.39L167.29 11.39L167.29 11.39Q167.29 11.03 167.89 10.44L167.89 10.44L167.89 10.44Q168.24 10.11 168.63 10.11L168.63 10.11L168.63 10.11Q169.02 10.11 169.72 10.81L169.72 10.81L169.72 10.81Q169.92 11.05 170.28 11.26L170.28 11.26L170.28 11.26Q170.65 11.48 170.95 11.48L170.95 11.48L170.95 11.48Q172.26 11.48 172.26 10.42L172.26 10.42L172.26 10.42Q172.26 10.09 171.90 9.88L171.90 9.88L171.90 9.88Q171.54 9.66 171.01 9.56L171.01 9.56L171.01 9.56Q170.48 9.46 169.86 9.25L169.86 9.25L169.86 9.25Q169.25 9.03 168.71 8.74L168.71 8.74L168.71 8.74Q168.18 8.44 167.83 7.81L167.83 7.81L167.83 7.81Q167.47 7.17 167.47 6.27L167.47 6.27L167.47 6.27Q167.47 5.04 168.39 4.12L168.39 4.12L168.39 4.12Q169.30 3.21 170.88 3.21L170.88 3.21L170.88 3.21Q171.72 3.21 172.42 3.42L172.42 3.42L172.42 3.42Q173.11 3.64 173.38 3.86L173.38 3.86L173.73 4.13L173.73 4.13Q174.16 4.54 174.16 4.82L174.16 4.82L174.16 4.82Q174.16 5.10 173.82 5.59L173.82 5.59L173.82 5.59Q173.35 6.29 172.84 6.29L172.84 6.29L172.84 6.29Q172.55 6.29 172.12 6.01L172.12 6.01L172.12 6.01Q172.07 5.98 171.96 5.87L171.96 5.87L171.96 5.87Q171.84 5.75 171.74 5.68L171.74 5.68L171.74 5.68Q171.44 5.50 170.99 5.50L170.99 5.50L170.99 5.50Q170.53 5.50 170.23 5.72L170.23 5.72L170.23 5.72Q169.93 5.94 169.93 6.32L169.93 6.32L169.93 6.32Q169.93 6.71 170.29 6.94L170.29 6.94L170.29 6.94Q170.65 7.18 171.18 7.27L171.18 7.27L171.18 7.27Q171.71 7.35 172.34 7.53L172.34 7.53L172.34 7.53Q172.97 7.70 173.50 7.95L173.50 7.95L173.50 7.95Q174.03 8.20 174.39 8.83L174.39 8.83L174.39 8.83Q174.75 9.45 174.75 10.36L174.75 10.36L174.75 10.36Q174.75 11.27 174.38 11.96L174.38 11.96L174.38 11.96Q174.02 12.66 173.43 13.03L173.43 13.03L173.43 13.03Q172.30 13.78 171.01 13.78L171.01 13.78L171.01 13.78Q170.35 13.78 169.76 13.62L169.76 13.62L169.76 13.62Q169.18 13.45 168.81 13.22L168.81 13.22L168.81 13.22Q168.07 12.77 167.78 12.35L167.78 12.35ZM175.66 12.39L175.66 4.61L175.66 4.61Q175.66 4.28 175.68 4.12L175.68 4.12L175.68 4.12Q175.70 3.96 175.81 3.75L175.81 3.75L175.81 3.75Q176.01 3.37 176.90 3.37L176.90 3.37L176.90 3.37Q177.88 3.37 178.07 3.89L178.07 3.89L178.07 3.89Q178.14 4.13 178.14 4.62L178.14 4.62L178.14 12.40L178.14 12.40Q178.14 12.74 178.12 12.89L178.12 12.89L178.12 12.89Q178.09 13.05 177.98 13.26L177.98 13.26L177.98 13.26Q177.79 13.64 176.89 13.64L176.89 13.64L176.89 13.64Q175.91 13.64 175.74 13.10L175.74 13.10L175.74 13.10Q175.66 12.88 175.66 12.39L175.66 12.39ZM184.07 3.25L184.07 3.25L184.07 3.25Q186.14 3.25 187.67 4.75L187.67 4.75L187.67 4.75Q189.20 6.24 189.20 8.46L189.20 8.46L189.20 8.46Q189.20 10.68 187.74 12.24L187.74 12.24L187.74 12.24Q186.28 13.80 184.16 13.80L184.16 13.80L184.16 13.80Q182.03 13.80 180.54 12.26L180.54 12.26L180.54 12.26Q179.05 10.72 179.05 8.60L179.05 8.60L179.05 8.60Q179.05 7.43 179.47 6.42L179.47 6.42L179.47 6.42Q179.89 5.40 180.59 4.72L180.59 4.72L180.59 4.72Q181.29 4.03 182.20 3.64L182.20 3.64L182.20 3.64Q183.11 3.25 184.07 3.25ZM181.52 8.53L181.52 8.53L181.52 8.53Q181.52 9.77 182.33 10.55L182.33 10.55L182.33 10.55Q183.13 11.33 184.13 11.33L184.13 11.33L184.13 11.33Q185.12 11.33 185.92 10.57L185.92 10.57L185.92 10.57Q186.72 9.81 186.72 8.54L186.72 8.54L186.72 8.54Q186.72 7.27 185.91 6.50L185.91 6.50L185.91 6.50Q185.11 5.73 184.11 5.73L184.11 5.73L184.11 5.73Q183.12 5.73 182.32 6.50L182.32 6.50L182.32 6.50Q181.52 7.28 181.52 8.53ZM196.74 3.80L196.74 3.80L196.74 3.80Q196.87 3.56 197.13 3.47L197.13 3.47L197.13 3.47Q197.40 3.39 197.80 3.39L197.80 3.39L197.80 3.39Q198.20 3.39 198.44 3.46L198.44 3.46L198.44 3.46Q198.69 3.53 198.81 3.63L198.81 3.63L198.81 3.63Q198.93 3.72 198.98 3.92L198.98 3.92L198.98 3.92Q199.07 4.14 199.07 4.63L199.07 4.63L199.07 12.40L199.07 12.40Q199.07 12.74 199.05 12.89L199.05 12.89L199.05 12.89Q199.02 13.05 198.91 13.26L198.91 13.26L198.91 13.26Q198.72 13.64 197.82 13.64L197.82 13.64L197.82 13.64Q197.27 13.64 197.06 13.55L197.06 13.55L197.06 13.55Q196.85 13.47 196.71 13.29L196.71 13.29L196.71 13.29Q193.56 9.09 192.57 7.80L192.57 7.80L192.57 12.40L192.57 12.40Q192.57 12.74 192.55 12.89L192.55 12.89L192.55 12.89Q192.53 13.05 192.42 13.26L192.42 13.26L192.42 13.26Q192.22 13.64 191.32 13.64L191.32 13.64L191.32 13.64Q190.46 13.64 190.26 13.26L190.26 13.26L190.26 13.26Q190.15 13.05 190.13 12.88L190.13 12.88L190.13 12.88Q190.11 12.71 190.11 12.39L190.11 12.39L190.11 4.58L190.11 4.58Q190.11 4.05 190.24 3.80L190.24 3.80L190.24 3.80Q190.37 3.56 190.64 3.47L190.64 3.47L190.64 3.47Q190.90 3.39 191.32 3.39L191.32 3.39L191.32 3.39Q191.74 3.39 191.99 3.47L191.99 3.47L191.99 3.47Q192.23 3.54 192.33 3.64L192.33 3.64L192.33 3.64Q192.39 3.68 192.65 4.00L192.65 4.00L192.65 4.00Q195.61 8.02 196.60 9.31L196.60 9.31L196.60 4.58L196.60 4.58Q196.60 4.05 196.74 3.80ZM202.66 9.74L202.66 11.16L206.98 11.16L206.98 11.16Q207.30 11.16 207.46 11.18L207.46 11.18L207.46 11.18Q207.62 11.20 207.83 11.31L207.83 11.31L207.83 11.31Q208.21 11.51 208.21 12.40L208.21 12.40L208.21 12.40Q208.21 13.38 207.69 13.55L207.69 13.55L207.69 13.55Q207.45 13.64 206.96 13.64L206.96 13.64L201.42 13.64L201.42 13.64Q200.44 13.64 200.27 13.10L200.27 13.10L200.27 13.10Q200.19 12.88 200.19 12.39L200.19 12.39L200.19 4.61L200.19 4.61Q200.19 3.89 200.45 3.63L200.45 3.63L200.45 3.63Q200.72 3.37 201.46 3.37L201.46 3.37L206.98 3.37L206.98 3.37Q207.30 3.37 207.46 3.40L207.46 3.40L207.46 3.40Q207.62 3.42 207.83 3.53L207.83 3.53L207.83 3.53Q208.21 3.72 208.21 4.62L208.21 4.62L208.21 4.62Q208.21 5.60 207.69 5.77L207.69 5.77L207.69 5.77Q207.45 5.85 206.96 5.85L206.96 5.85L202.66 5.85L202.66 7.27L205.44 7.27L205.44 7.27Q205.76 7.27 205.92 7.29L205.92 7.29L205.92 7.29Q206.08 7.31 206.29 7.42L206.29 7.42L206.29 7.42Q206.67 7.62 206.67 8.51L206.67 8.51L206.67 8.51Q206.67 9.49 206.14 9.66L206.14 9.66L206.14 9.66Q205.90 9.74 205.41 9.74L205.41 9.74L202.66 9.74ZM209.40 12.35L209.27 12.19L209.27 12.19Q208.91 11.75 208.91 11.39L208.91 11.39L208.91 11.39Q208.91 11.03 209.51 10.44L209.51 10.44L209.51 10.44Q209.86 10.11 210.25 10.11L210.25 10.11L210.25 10.11Q210.64 10.11 211.34 10.81L211.34 10.81L211.34 10.81Q211.54 11.05 211.90 11.26L211.90 11.26L211.90 11.26Q212.27 11.48 212.58 11.48L212.58 11.48L212.58 11.48Q213.88 11.48 213.88 10.42L213.88 10.42L213.88 10.42Q213.88 10.09 213.52 9.88L213.52 9.88L213.52 9.88Q213.16 9.66 212.63 9.56L212.63 9.56L212.63 9.56Q212.10 9.46 211.48 9.25L211.48 9.25L211.48 9.25Q210.87 9.03 210.34 8.74L210.34 8.74L210.34 8.74Q209.80 8.44 209.45 7.81L209.45 7.81L209.45 7.81Q209.09 7.17 209.09 6.27L209.09 6.27L209.09 6.27Q209.09 5.04 210.01 4.12L210.01 4.12L210.01 4.12Q210.92 3.21 212.51 3.21L212.51 3.21L212.51 3.21Q213.35 3.21 214.04 3.42L214.04 3.42L214.04 3.42Q214.73 3.64 215.00 3.86L215.00 3.86L215.35 4.13L215.35 4.13Q215.78 4.54 215.78 4.82L215.78 4.82L215.78 4.82Q215.78 5.10 215.45 5.59L215.45 5.59L215.45 5.59Q214.97 6.29 214.47 6.29L214.47 6.29L214.47 6.29Q214.17 6.29 213.74 6.01L213.74 6.01L213.74 6.01Q213.70 5.98 213.58 5.87L213.58 5.87L213.58 5.87Q213.46 5.75 213.36 5.68L213.36 5.68L213.36 5.68Q213.07 5.50 212.61 5.50L212.61 5.50L212.61 5.50Q212.16 5.50 211.86 5.72L211.86 5.72L211.86 5.72Q211.55 5.94 211.55 6.32L211.55 6.32L211.55 6.32Q211.55 6.71 211.91 6.94L211.91 6.94L211.91 6.94Q212.27 7.18 212.80 7.27L212.80 7.27L212.80 7.27Q213.33 7.35 213.96 7.53L213.96 7.53L213.96 7.53Q214.59 7.70 215.12 7.95L215.12 7.95L215.12 7.95Q215.66 8.20 216.01 8.83L216.01 8.83L216.01 8.83Q216.37 9.45 216.37 10.36L216.37 10.36L216.37 10.36Q216.37 11.27 216.01 11.96L216.01 11.96L216.01 11.96Q215.64 12.66 215.05 13.03L215.05 13.03L215.05 13.03Q213.92 13.78 212.63 13.78L212.63 13.78L212.63 13.78Q211.97 13.78 211.39 13.62L211.39 13.62L211.39 13.62Q210.80 13.45 210.43 13.22L210.43 13.22L210.43 13.22Q209.69 12.77 209.40 12.35L209.40 12.35ZM219.45 11.33L219.45 11.33L219.45 11.33Q219.69 11.56 219.69 12.31L219.69 12.31L219.69 12.36L219.69 12.36Q219.69 12.70 219.67 12.86L219.67 12.86L219.67 12.86Q219.65 13.02 219.52 13.24L219.52 13.24L219.52 13.24Q219.31 13.65 218.46 13.65L218.46 13.65L218.46 13.65Q217.62 13.65 217.34 13.38L217.34 13.38L217.34 13.38Q217.07 13.12 217.07 12.38L217.07 12.38L217.07 12.32L217.07 12.32Q217.07 12.00 217.09 11.83L217.09 11.83L217.09 11.83Q217.11 11.66 217.22 11.45L217.22 11.45L217.22 11.45Q217.43 11.03 218.28 11.03L218.28 11.03L218.28 11.03Q219.13 11.03 219.45 11.33ZM230.55 10.95L230.55 10.95L230.80 10.77L230.80 10.77Q231.28 10.49 231.48 10.49L231.48 10.49L231.48 10.49Q231.91 10.49 232.41 11.27L232.41 11.27L232.41 11.27Q232.72 11.76 232.72 12.05L232.72 12.05L232.72 12.05Q232.72 12.35 232.53 12.54L232.53 12.54L232.53 12.54Q232.34 12.74 232.09 12.89L232.09 12.89L232.09 12.89Q231.84 13.05 231.61 13.19L231.61 13.19L231.61 13.19Q231.38 13.33 230.66 13.55L230.66 13.55L230.66 13.55Q229.95 13.78 229.29 13.78L229.29 13.78L229.29 13.78Q228.62 13.78 227.94 13.60L227.94 13.60L227.94 13.60Q227.26 13.43 226.54 13.01L226.54 13.01L226.54 13.01Q225.82 12.60 225.25 12.01L225.25 12.01L225.25 12.01Q224.67 11.41 224.30 10.48L224.30 10.48L224.30 10.48Q223.93 9.55 223.93 8.46L223.93 8.46L223.93 8.46Q223.93 7.36 224.29 6.48L224.29 6.48L224.29 6.48Q224.66 5.59 225.23 5.01L225.23 5.01L225.23 5.01Q225.79 4.42 226.52 4.03L226.52 4.03L226.52 4.03Q227.89 3.28 229.28 3.28L229.28 3.28L229.28 3.28Q229.94 3.28 230.62 3.48L230.62 3.48L230.62 3.48Q231.29 3.68 231.64 3.89L231.64 3.89L231.98 4.09L231.98 4.09Q232.23 4.24 232.37 4.34L232.37 4.34L232.37 4.34Q232.74 4.63 232.74 5.01L232.74 5.01L232.74 5.01Q232.74 5.38 232.44 5.78L232.44 5.78L232.44 5.78Q231.90 6.54 231.46 6.54L231.46 6.54L231.46 6.54Q231.21 6.54 230.75 6.23L230.75 6.23L230.75 6.23Q230.16 5.75 229.18 5.75L229.18 5.75L229.18 5.75Q228.27 5.75 227.39 6.38L227.39 6.38L227.39 6.38Q226.97 6.69 226.69 7.25L226.69 7.25L226.69 7.25Q226.41 7.81 226.41 8.52L226.41 8.52L226.41 8.52Q226.41 9.23 226.69 9.79L226.69 9.79L226.69 9.79Q226.97 10.35 227.40 10.67L227.40 10.67L227.40 10.67Q228.26 11.28 229.18 11.28L229.18 11.28L229.18 11.28Q229.61 11.28 230.00 11.17L230.00 11.17L230.00 11.17Q230.38 11.06 230.55 10.95ZM241.50 11.90L241.50 11.90L241.50 11.90Q241.71 12.40 241.71 12.63L241.71 12.63L241.71 12.63Q241.71 13.16 240.84 13.52L240.84 13.52L240.84 13.52Q240.39 13.72 240.12 13.72L240.12 13.72L240.12 13.72Q239.85 13.72 239.67 13.59L239.67 13.59L239.67 13.59Q239.50 13.45 239.41 13.31L239.41 13.31L239.41 13.31Q239.27 13.05 238.32 10.78L238.32 10.78L237.89 10.81L236.12 10.81L236.12 12.39L236.12 12.39Q236.12 12.71 236.10 12.87L236.10 12.87L236.10 12.87Q236.08 13.03 235.97 13.24L235.97 13.24L235.97 13.24Q235.77 13.62 234.88 13.62L234.88 13.62L234.88 13.62Q233.90 13.62 233.73 13.10L233.73 13.10L233.73 13.10Q233.65 12.87 233.65 12.38L233.65 12.38L233.65 4.61L233.65 4.61Q233.65 4.28 233.67 4.12L233.67 4.12L233.67 4.12Q233.69 3.96 233.80 3.75L233.80 3.75L233.80 3.75Q234.00 3.37 234.89 3.37L234.89 3.37L237.92 3.37L237.92 3.37Q239.15 3.37 240.31 4.27L240.31 4.27L240.31 4.27Q240.87 4.70 241.23 5.45L241.23 5.45L241.23 5.45Q241.60 6.19 241.60 7.10L241.60 7.10L241.60 7.10Q241.60 8.68 240.55 9.70L240.55 9.70L240.55 9.70Q240.86 10.44 241.50 11.90ZM236.12 5.85L236.12 8.33L237.92 8.33L237.92 8.33Q238.32 8.33 238.73 8.02L238.73 8.02L238.73 8.02Q239.13 7.71 239.13 7.10L239.13 7.10L239.13 7.10Q239.13 6.48 238.73 6.17L238.73 6.17L238.73 6.17Q238.32 5.85 237.89 5.85L237.89 5.85L236.12 5.85ZM244.96 9.74L244.96 11.16L249.27 11.16L249.27 11.16Q249.59 11.16 249.75 11.18L249.75 11.18L249.75 11.18Q249.91 11.20 250.12 11.31L250.12 11.31L250.12 11.31Q250.50 11.51 250.50 12.40L250.50 12.40L250.50 12.40Q250.50 13.38 249.98 13.55L249.98 13.55L249.98 13.55Q249.75 13.64 249.26 13.64L249.26 13.64L243.71 13.64L243.71 13.64Q242.73 13.64 242.56 13.10L242.56 13.10L242.56 13.10Q242.48 12.88 242.48 12.39L242.48 12.39L242.48 4.61L242.48 4.61Q242.48 3.89 242.75 3.63L242.75 3.63L242.75 3.63Q243.01 3.37 243.75 3.37L243.75 3.37L249.27 3.37L249.27 3.37Q249.59 3.37 249.75 3.40L249.75 3.40L249.75 3.40Q249.91 3.42 250.12 3.53L250.12 3.53L250.12 3.53Q250.50 3.72 250.50 4.62L250.50 4.62L250.50 4.62Q250.50 5.60 249.98 5.77L249.98 5.77L249.98 5.77Q249.75 5.85 249.26 5.85L249.26 5.85L244.96 5.85L244.96 7.27L247.73 7.27L247.73 7.27Q248.05 7.27 248.21 7.29L248.21 7.29L248.21 7.29Q248.37 7.31 248.58 7.42L248.58 7.42L248.58 7.42Q248.96 7.62 248.96 8.51L248.96 8.51L248.96 8.51Q248.96 9.49 248.43 9.66L248.43 9.66L248.43 9.66Q248.19 9.74 247.70 9.74L247.70 9.74L244.96 9.74ZM257.33 4.10L257.33 4.10L261.11 11.91L261.11 11.91Q261.35 12.39 261.35 12.63L261.35 12.63L261.35 12.63Q261.35 13.13 260.54 13.54L260.54 13.54L260.54 13.54Q260.06 13.78 259.79 13.78L259.79 13.78L259.79 13.78Q259.52 13.78 259.34 13.65L259.34 13.65L259.34 13.65Q259.17 13.52 259.09 13.38L259.09 13.38L259.09 13.38Q259.01 13.24 258.87 12.96L258.87 12.96L258.15 11.45L254.27 11.45L253.54 12.96L253.54 12.96Q253.40 13.24 253.32 13.37L253.32 13.37L253.32 13.37Q253.25 13.50 253.07 13.63L253.07 13.63L253.07 13.63Q252.90 13.76 252.62 13.76L252.62 13.76L252.62 13.76Q252.35 13.76 251.87 13.52L251.87 13.52L251.87 13.52Q251.06 13.13 251.06 12.63L251.06 12.63L251.06 12.63Q251.06 12.39 251.30 11.91L251.30 11.91L255.08 4.09L255.08 4.09Q255.23 3.77 255.55 3.57L255.55 3.57L255.55 3.57Q255.86 3.37 256.21 3.37L256.21 3.37L256.21 3.37Q256.97 3.37 257.33 4.10ZM257.14 9.38L256.20 7.46L255.28 9.38L257.14 9.38ZM268.75 3.80L268.75 3.80L268.75 3.80Q268.88 3.56 269.15 3.47L269.15 3.47L269.15 3.47Q269.42 3.39 269.81 3.39L269.81 3.39L269.81 3.39Q270.21 3.39 270.46 3.46L270.46 3.46L270.46 3.46Q270.70 3.53 270.82 3.63L270.82 3.63L270.82 3.63Q270.94 3.72 271.00 3.92L271.00 3.92L271.00 3.92Q271.08 4.14 271.08 4.63L271.08 4.63L271.08 12.40L271.08 12.40Q271.08 12.74 271.06 12.89L271.06 12.89L271.06 12.89Q271.04 13.05 270.93 13.26L270.93 13.26L270.93 13.26Q270.73 13.64 269.84 13.64L269.84 13.64L269.84 13.64Q269.29 13.64 269.08 13.55L269.08 13.55L269.08 13.55Q268.87 13.47 268.73 13.29L268.73 13.29L268.73 13.29Q265.58 9.09 264.59 7.80L264.59 7.80L264.59 12.40L264.59 12.40Q264.59 12.74 264.56 12.89L264.56 12.89L264.56 12.89Q264.54 13.05 264.43 13.26L264.43 13.26L264.43 13.26Q264.24 13.64 263.34 13.64L263.34 13.64L263.34 13.64Q262.47 13.64 262.28 13.26L262.28 13.26L262.28 13.26Q262.16 13.05 262.14 12.88L262.14 12.88L262.14 12.88Q262.12 12.71 262.12 12.39L262.12 12.39L262.12 4.58L262.12 4.58Q262.12 4.05 262.25 3.80L262.25 3.80L262.25 3.80Q262.39 3.56 262.65 3.47L262.65 3.47L262.65 3.47Q262.92 3.39 263.34 3.39L263.34 3.39L263.34 3.39Q263.76 3.39 264.00 3.47L264.00 3.47L264.00 3.47Q264.25 3.54 264.35 3.64L264.35 3.64L264.35 3.64Q264.40 3.68 264.67 4.00L264.67 4.00L264.67 4.00Q267.62 8.02 268.62 9.31L268.62 9.31L268.62 4.58L268.62 4.58Q268.62 4.05 268.75 3.80ZM273.45 3.36L273.45 3.36L276.04 3.37L276.04 3.37Q278.07 3.37 279.61 4.84L279.61 4.84L279.61 4.84Q281.15 6.30 281.15 8.44L281.15 8.44L281.15 8.44Q281.15 10.57 279.64 12.10L279.64 12.10L279.64 12.10Q278.14 13.62 276.00 13.62L276.00 13.62L273.43 13.62L273.43 13.62Q272.58 13.62 272.37 13.27L272.37 13.27L272.37 13.27Q272.20 12.98 272.20 12.38L272.20 12.38L272.20 4.59L272.20 4.59Q272.20 4.26 272.22 4.10L272.22 4.10L272.22 4.10Q272.24 3.95 272.36 3.74L272.36 3.74L272.36 3.74Q272.55 3.36 273.45 3.36ZM276.04 11.14L276.04 11.14Q277.05 11.14 277.86 10.40L277.86 10.40L277.86 10.40Q278.67 9.65 278.67 8.51L278.67 8.51L278.67 8.51Q278.67 7.38 277.88 6.62L277.88 6.62L277.88 6.62Q277.09 5.85 276.02 5.85L276.02 5.85L274.68 5.85L274.68 11.14L276.04 11.14ZM286.87 3.25L286.87 3.25L286.87 3.25Q288.95 3.25 290.47 4.75L290.47 4.75L290.47 4.75Q292.00 6.24 292.00 8.46L292.00 8.46L292.00 8.46Q292.00 10.68 290.54 12.24L290.54 12.24L290.54 12.24Q289.09 13.80 286.96 13.80L286.96 13.80L286.96 13.80Q284.83 13.80 283.34 12.26L283.34 12.26L283.34 12.26Q281.85 10.72 281.85 8.60L281.85 8.60L281.85 8.60Q281.85 7.43 282.27 6.42L282.27 6.42L282.27 6.42Q282.69 5.40 283.39 4.72L283.39 4.72L283.39 4.72Q284.09 4.03 285.00 3.64L285.00 3.64L285.00 3.64Q285.91 3.25 286.87 3.25ZM284.33 8.53L284.33 8.53L284.33 8.53Q284.33 9.77 285.13 10.55L285.13 10.55L285.13 10.55Q285.94 11.33 286.93 11.33L286.93 11.33L286.93 11.33Q287.92 11.33 288.72 10.57L288.72 10.57L288.72 10.57Q289.52 9.81 289.52 8.54L289.52 8.54L289.52 8.54Q289.52 7.27 288.71 6.50L288.71 6.50L288.71 6.50Q287.91 5.73 286.92 5.73L286.92 5.73L286.92 5.73Q285.92 5.73 285.12 6.50L285.12 6.50L285.12 6.50Q284.33 7.28 284.33 8.53ZM304.30 11.90L304.30 11.90L304.30 11.90Q304.51 12.40 304.51 12.63L304.51 12.63L304.51 12.63Q304.51 13.16 303.65 13.52L303.65 13.52L303.65 13.52Q303.20 13.72 302.93 13.72L302.93 13.72L302.93 13.72Q302.65 13.72 302.48 13.59L302.48 13.59L302.48 13.59Q302.30 13.45 302.22 13.31L302.22 13.31L302.22 13.31Q302.08 13.05 301.13 10.78L301.13 10.78L300.69 10.81L298.93 10.81L298.93 12.39L298.93 12.39Q298.93 12.71 298.91 12.87L298.91 12.87L298.91 12.87Q298.89 13.03 298.77 13.24L298.77 13.24L298.77 13.24Q298.58 13.62 297.68 13.62L297.68 13.62L297.68 13.62Q296.70 13.62 296.53 13.10L296.53 13.10L296.53 13.10Q296.45 12.87 296.45 12.38L296.45 12.38L296.45 4.61L296.45 4.61Q296.45 4.28 296.47 4.12L296.47 4.12L296.47 4.12Q296.49 3.96 296.60 3.75L296.60 3.75L296.60 3.75Q296.80 3.37 297.70 3.37L297.70 3.37L300.72 3.37L300.72 3.37Q301.95 3.37 303.11 4.27L303.11 4.27L303.11 4.27Q303.67 4.70 304.04 5.45L304.04 5.45L304.04 5.45Q304.40 6.19 304.40 7.10L304.40 7.10L304.40 7.10Q304.40 8.68 303.35 9.70L303.35 9.70L303.35 9.70Q303.66 10.44 304.30 11.90ZM298.93 5.85L298.93 8.33L300.72 8.33L300.72 8.33Q301.13 8.33 301.53 8.02L301.53 8.02L301.53 8.02Q301.94 7.71 301.94 7.10L301.94 7.10L301.94 7.10Q301.94 6.48 301.53 6.17L301.53 6.17L301.53 6.17Q301.13 5.85 300.69 5.85L300.69 5.85L298.93 5.85ZM307.76 9.74L307.76 11.16L312.07 11.16L312.07 11.16Q312.40 11.16 312.56 11.18L312.56 11.18L312.56 11.18Q312.72 11.20 312.93 11.31L312.93 11.31L312.93 11.31Q313.31 11.51 313.31 12.40L313.31 12.40L313.31 12.40Q313.31 13.38 312.79 13.55L312.79 13.55L312.79 13.55Q312.55 13.64 312.06 13.64L312.06 13.64L306.52 13.64L306.52 13.64Q305.54 13.64 305.37 13.10L305.37 13.10L305.37 13.10Q305.28 12.88 305.28 12.39L305.28 12.39L305.28 4.61L305.28 4.61Q305.28 3.89 305.55 3.63L305.55 3.63L305.55 3.63Q305.82 3.37 306.56 3.37L306.56 3.37L312.07 3.37L312.07 3.37Q312.40 3.37 312.56 3.40L312.56 3.40L312.56 3.40Q312.72 3.42 312.93 3.53L312.93 3.53L312.93 3.53Q313.31 3.72 313.31 4.62L313.31 4.62L313.31 4.62Q313.31 5.60 312.79 5.77L312.79 5.77L312.79 5.77Q312.55 5.85 312.06 5.85L312.06 5.85L307.76 5.85L307.76 7.27L310.53 7.27L310.53 7.27Q310.86 7.27 311.02 7.29L311.02 7.29L311.02 7.29Q311.18 7.31 311.39 7.42L311.39 7.42L311.39 7.42Q311.77 7.62 311.77 8.51L311.77 8.51L311.77 8.51Q311.77 9.49 311.23 9.66L311.23 9.66L311.23 9.66Q311.00 9.74 310.51 9.74L310.51 9.74L307.76 9.74ZM320.14 4.10L320.14 4.10L323.92 11.91L323.92 11.91Q324.16 12.39 324.16 12.63L324.16 12.63L324.16 12.63Q324.16 13.13 323.34 13.54L323.34 13.54L323.34 13.54Q322.87 13.78 322.60 13.78L322.60 13.78L322.60 13.78Q322.32 13.78 322.15 13.65L322.15 13.65L322.15 13.65Q321.97 13.52 321.89 13.38L321.89 13.38L321.89 13.38Q321.82 13.24 321.68 12.96L321.68 12.96L320.95 11.45L317.07 11.45L316.34 12.96L316.34 12.96Q316.20 13.24 316.13 13.37L316.13 13.37L316.13 13.37Q316.05 13.50 315.88 13.63L315.88 13.63L315.88 13.63Q315.70 13.76 315.43 13.76L315.43 13.76L315.43 13.76Q315.15 13.76 314.68 13.52L314.68 13.52L314.68 13.52Q313.87 13.13 313.87 12.63L313.87 12.63L313.87 12.63Q313.87 12.39 314.10 11.91L314.10 11.91L317.88 4.09L317.88 4.09Q318.04 3.77 318.35 3.57L318.35 3.57L318.35 3.57Q318.67 3.37 319.02 3.37L319.02 3.37L319.02 3.37Q319.77 3.37 320.14 4.10ZM319.94 9.38L319.00 7.46L318.08 9.38L319.94 9.38ZM327.40 4.62L327.40 11.56L331.21 11.56L331.21 11.56Q331.67 11.56 331.88 11.67L331.88 11.67L331.88 11.67Q332.09 11.77 332.16 12.00L332.16 12.00L332.16 12.00Q332.23 12.22 332.23 12.59L332.23 12.59L332.23 12.59Q332.23 12.96 332.16 13.19L332.16 13.19L332.16 13.19Q332.09 13.41 331.93 13.50L331.93 13.50L331.93 13.50Q331.66 13.64 331.20 13.64L331.20 13.64L326.16 13.64L326.16 13.64Q325.18 13.64 325.01 13.10L325.01 13.10L325.01 13.10Q324.93 12.88 324.93 12.39L324.93 12.39L324.93 4.61L324.93 4.61Q324.93 4.28 324.95 4.12L324.95 4.12L324.95 4.12Q324.97 3.96 325.08 3.75L325.08 3.75L325.08 3.75Q325.28 3.37 326.17 3.37L326.17 3.37L326.17 3.37Q327.15 3.37 327.33 3.89L327.33 3.89L327.33 3.89Q327.40 4.13 327.40 4.62L327.40 4.62ZM333.14 12.39L333.14 4.61L333.14 4.61Q333.14 4.28 333.17 4.12L333.17 4.12L333.17 4.12Q333.19 3.96 333.30 3.75L333.30 3.75L333.30 3.75Q333.49 3.37 334.39 3.37L334.39 3.37L334.39 3.37Q335.37 3.37 335.55 3.89L335.55 3.89L335.55 3.89Q335.62 4.13 335.62 4.62L335.62 4.62L335.62 12.40L335.62 12.40Q335.62 12.74 335.60 12.89L335.60 12.89L335.60 12.89Q335.58 13.05 335.47 13.26L335.47 13.26L335.47 13.26Q335.27 13.64 334.38 13.64L334.38 13.64L334.38 13.64Q333.40 13.64 333.23 13.10L333.23 13.10L333.23 13.10Q333.14 12.88 333.14 12.39L333.14 12.39ZM337.99 3.36L337.99 3.36L340.58 3.37L340.58 3.37Q342.61 3.37 344.15 4.84L344.15 4.84L344.15 4.84Q345.69 6.30 345.69 8.44L345.69 8.44L345.69 8.44Q345.69 10.57 344.18 12.10L344.18 12.10L344.18 12.10Q342.68 13.62 340.54 13.62L340.54 13.62L337.97 13.62L337.97 13.62Q337.12 13.62 336.91 13.27L336.91 13.27L336.91 13.27Q336.74 12.98 336.74 12.38L336.74 12.38L336.74 4.59L336.74 4.59Q336.74 4.26 336.76 4.10L336.76 4.10L336.76 4.10Q336.78 3.95 336.90 3.74L336.90 3.74L336.90 3.74Q337.09 3.36 337.99 3.36ZM340.58 11.14L340.58 11.14Q341.59 11.14 342.40 10.40L342.40 10.40L342.40 10.40Q343.21 9.65 343.21 8.51L343.21 8.51L343.21 8.51Q343.21 7.38 342.42 6.62L342.42 6.62L342.42 6.62Q341.63 5.85 340.56 5.85L340.56 5.85L339.22 5.85L339.22 11.14L340.58 11.14ZM351.82 4.10L351.82 4.10L355.60 11.91L355.60 11.91Q355.84 12.39 355.84 12.63L355.84 12.63L355.84 12.63Q355.84 13.13 355.03 13.54L355.03 13.54L355.03 13.54Q354.55 13.78 354.28 13.78L354.28 13.78L354.28 13.78Q354.00 13.78 353.83 13.65L353.83 13.65L353.83 13.65Q353.65 13.52 353.58 13.38L353.58 13.38L353.58 13.38Q353.50 13.24 353.36 12.96L353.36 12.96L352.63 11.45L348.75 11.45L348.03 12.96L348.03 12.96Q347.89 13.24 347.81 13.37L347.81 13.37L347.81 13.37Q347.73 13.50 347.56 13.63L347.56 13.63L347.56 13.63Q347.38 13.76 347.11 13.76L347.11 13.76L347.11 13.76Q346.84 13.76 346.36 13.52L346.36 13.52L346.36 13.52Q345.55 13.13 345.55 12.63L345.55 12.63L345.55 12.63Q345.55 12.39 345.79 11.91L345.79 11.91L349.57 4.09L349.57 4.09Q349.72 3.77 350.04 3.57L350.04 3.57L350.04 3.57Q350.35 3.37 350.70 3.37L350.70 3.37L350.70 3.37Q351.46 3.37 351.82 4.10ZM351.62 9.38L350.69 7.46L349.76 9.38L351.62 9.38ZM357.85 3.36L357.85 3.36L360.44 3.37L360.44 3.37Q362.47 3.37 364.01 4.84L364.01 4.84L364.01 4.84Q365.55 6.30 365.55 8.44L365.55 8.44L365.55 8.44Q365.55 10.57 364.05 12.10L364.05 12.10L364.05 12.10Q362.54 13.62 360.40 13.62L360.40 13.62L357.84 13.62L357.84 13.62Q356.99 13.62 356.78 13.27L356.78 13.27L356.78 13.27Q356.61 12.98 356.61 12.38L356.61 12.38L356.61 4.59L356.61 4.59Q356.61 4.26 356.63 4.10L356.63 4.10L356.63 4.10Q356.65 3.95 356.76 3.74L356.76 3.74L356.76 3.74Q356.96 3.36 357.85 3.36ZM360.44 11.14L360.44 11.14Q361.45 11.14 362.26 10.40L362.26 10.40L362.26 10.40Q363.08 9.65 363.08 8.51L363.08 8.51L363.08 8.51Q363.08 7.38 362.29 6.62L362.29 6.62L362.29 6.62Q361.49 5.85 360.43 5.85L360.43 5.85L359.09 5.85L359.09 11.14L360.44 11.14ZM368.94 9.74L368.94 11.16L373.25 11.16L373.25 11.16Q373.58 11.16 373.74 11.18L373.74 11.18L373.74 11.18Q373.90 11.20 374.11 11.31L374.11 11.31L374.11 11.31Q374.49 11.51 374.49 12.40L374.49 12.40L374.49 12.40Q374.49 13.38 373.97 13.55L373.97 13.55L373.97 13.55Q373.73 13.64 373.24 13.64L373.24 13.64L367.70 13.64L367.70 13.64Q366.72 13.64 366.55 13.10L366.55 13.10L366.55 13.10Q366.46 12.88 366.46 12.39L366.46 12.39L366.46 4.61L366.46 4.61Q366.46 3.89 366.73 3.63L366.73 3.63L366.73 3.63Q367.00 3.37 367.74 3.37L367.74 3.37L373.25 3.37L373.25 3.37Q373.58 3.37 373.74 3.40L373.74 3.40L373.74 3.40Q373.90 3.42 374.11 3.53L374.11 3.53L374.11 3.53Q374.49 3.72 374.49 4.62L374.49 4.62L374.49 4.62Q374.49 5.60 373.97 5.77L373.97 5.77L373.97 5.77Q373.73 5.85 373.24 5.85L373.24 5.85L368.94 5.85L368.94 7.27L371.71 7.27L371.71 7.27Q372.04 7.27 372.20 7.29L372.20 7.29L372.20 7.29Q372.36 7.31 372.57 7.42L372.57 7.42L372.57 7.42Q372.95 7.62 372.95 8.51L372.95 8.51L372.95 8.51Q372.95 9.49 372.41 9.66L372.41 9.66L372.41 9.66Q372.18 9.74 371.69 9.74L371.69 9.74L368.94 9.74ZM375.68 12.35L375.55 12.19L375.55 12.19Q375.19 11.75 375.19 11.39L375.19 11.39L375.19 11.39Q375.19 11.03 375.79 10.44L375.79 10.44L375.79 10.44Q376.14 10.11 376.53 10.11L376.53 10.11L376.53 10.11Q376.92 10.11 377.62 10.81L377.62 10.81L377.62 10.81Q377.82 11.05 378.18 11.26L378.18 11.26L378.18 11.26Q378.55 11.48 378.85 11.48L378.85 11.48L378.85 11.48Q380.16 11.48 380.16 10.42L380.16 10.42L380.16 10.42Q380.16 10.09 379.80 9.88L379.80 9.88L379.80 9.88Q379.44 9.66 378.91 9.56L378.91 9.56L378.91 9.56Q378.38 9.46 377.76 9.25L377.76 9.25L377.76 9.25Q377.15 9.03 376.61 8.74L376.61 8.74L376.61 8.74Q376.08 8.44 375.73 7.81L375.73 7.81L375.73 7.81Q375.37 7.17 375.37 6.27L375.37 6.27L375.37 6.27Q375.37 5.04 376.29 4.12L376.29 4.12L376.29 4.12Q377.20 3.21 378.78 3.21L378.78 3.21L378.78 3.21Q379.62 3.21 380.32 3.42L380.32 3.42L380.32 3.42Q381.01 3.64 381.28 3.86L381.28 3.86L381.63 4.13L381.63 4.13Q382.06 4.54 382.06 4.82L382.06 4.82L382.06 4.82Q382.06 5.10 381.72 5.59L381.72 5.59L381.72 5.59Q381.25 6.29 380.74 6.29L380.74 6.29L380.74 6.29Q380.45 6.29 380.02 6.01L380.02 6.01L380.02 6.01Q379.97 5.98 379.86 5.87L379.86 5.87L379.86 5.87Q379.74 5.75 379.64 5.68L379.64 5.68L379.64 5.68Q379.34 5.50 378.89 5.50L378.89 5.50L378.89 5.50Q378.43 5.50 378.13 5.72L378.13 5.72L378.13 5.72Q377.83 5.94 377.83 6.32L377.83 6.32L377.83 6.32Q377.83 6.71 378.19 6.94L378.19 6.94L378.19 6.94Q378.55 7.18 379.08 7.27L379.08 7.27L379.08 7.27Q379.61 7.35 380.24 7.53L380.24 7.53L380.24 7.53Q380.87 7.70 381.40 7.95L381.40 7.95L381.40 7.95Q381.93 8.20 382.29 8.83L382.29 8.83L382.29 8.83Q382.65 9.45 382.65 10.36L382.65 10.36L382.65 10.36Q382.65 11.27 382.28 11.96L382.28 11.96L382.28 11.96Q381.92 12.66 381.33 13.03L381.33 13.03L381.33 13.03Q380.20 13.78 378.91 13.78L378.91 13.78L378.91 13.78Q378.25 13.78 377.66 13.62L377.66 13.62L377.66 13.62Q377.08 13.45 376.71 13.22L376.71 13.22L376.71 13.22Q375.97 12.77 375.68 12.35L375.68 12.35ZM385.73 11.33L385.73 11.33L385.73 11.33Q385.97 11.56 385.97 12.31L385.97 12.31L385.97 12.36L385.97 12.36Q385.97 12.70 385.94 12.86L385.94 12.86L385.94 12.86Q385.92 13.02 385.80 13.24L385.80 13.24L385.80 13.24Q385.59 13.65 384.74 13.65L384.74 13.65L384.74 13.65Q383.89 13.65 383.62 13.38L383.62 13.38L383.62 13.38Q383.35 13.12 383.35 12.38L383.35 12.38L383.35 12.32L383.35 12.32Q383.35 12.00 383.37 11.83L383.37 11.83L383.37 11.83Q383.39 11.66 383.50 11.45L383.50 11.45L383.50 11.45Q383.71 11.03 384.56 11.03L384.56 11.03L384.56 11.03Q385.41 11.03 385.73 11.33Z"></path></g></svg>