<svg data-v-fde0c5aa="" xmlns="http://www.w3.org/2000/svg" viewBox="0 0 300 300" class="icon"><!----><defs data-v-fde0c5aa=""><!----></defs><rect data-v-fde0c5aa="" fill="#111F51" x="0" y="0" width="300px" height="300px" class="logo-background-square"></rect><!----><defs data-v-fde0c5aa=""><!----></defs><g data-v-fde0c5aa="" id="9680aaea-4657-45ce-9415-af9d93ed225a" fill="#19CEDA" stroke="none" transform="matrix(2.2,0,0,2.2,45.52212219238281,39.999999999999986)"><path d="M91.039 55.502c-.071 2.669-2.113 4.711-4.782 4.782-2.669-.071-4.711-2.113-4.783-4.782a2.24 2.24 0 0 0-.04-.358c.025-.133.04-.273.04-.424V12.9L93.21 6.728C96.451 5.024 94.881 0 91.388 0H3.61C2.488 0 1.64.421 1.059 1.057.422 1.638 0 2.488 0 3.61v22.072c0 1.968 1.642 3.611 3.61 3.611h10.124l-6.025 51.98-1.752 15.116C5.73 98.349 7.771 100 9.568 100c2.14 0 3.384-1.655 3.61-3.61l.48-4.141 19.161-16.793 19.029 16.678.132.115c.16 1.38.319 2.761.48 4.141.226 1.955 1.471 3.61 3.61 3.61 1.796 0 3.837-1.65 3.61-3.61L53.237 40.8l-1.426-12.302.08-.039 25.644-13.487V54.721c0 .125.012.241.03.354a2.185 2.185 0 0 0-.03.429c.126 4.688 3.651 8.343 8.27 8.688.141.025.291.037.452.033.161.004.312-.008.452-.033 4.618-.346 8.143-4.001 8.27-8.688.068-2.544-3.872-2.537-3.94-.002zM32.575 29.293h5.394l-5.15 4.549-5.15-4.549H32.575zm-12.007 3.344l6.808 6.014-8.361 7.386.607-5.237.946-8.163zm12.251 10.821L45.557 54.71 32.819 65.874 20.081 54.71l12.738-11.252zm5.443-4.808l6.808-6.014 1.553 13.4-8.361-7.386zM14.895 81.584l2.297-19.825c3.387 2.969 6.774 5.938 10.161 8.905l-12.458 10.92zm23.39-10.919l10.161-8.905 2.262 19.514.036.312-12.459-10.921zm10.249-48.593H7.222V7.221H76.774c-9.415 4.95-18.828 9.901-28.24 14.851z"></path></g><!----></svg>